<svg id="Graphic_Element" data-name="Graphic Element" xmlns="http://www.w3.org/2000/svg" viewBox="0 0 1200 1200"><title>job676-189-v [Converted]</title><g id="g4140"><path id="path7989" d="M693.77,1145.13c-4.88-3.62-6.36-5.57-6.36-8.37a51.1,51.1,0,0,0-2.13-10.8c-1.53-5.18-2-11.25-1.67-22,.43-14.45.35-15-2.9-17.78l-3.35-2.92,2.55-4.79c2.45-4.59,2.46-4.89.17-7.42a6.19,6.19,0,0,1-1.46-6.37c.51-2.05,1.38-7,1.94-11l1-7.24-5-2c-6.43-2.53-7.17-4.65-4.34-12.52,2.1-5.84,2.15-8.29.54-28.91-1-12.39-2.21-33.69-2.75-47.33s-1.45-26.82-2-29.3c-.89-3.95-.54-4.88,2.85-7.6l3.86-3.1-6-5.13c-3.28-2.82-7.09-6.05-8.48-7.17-2.58-2.09-3-5.09-2.58-16.6.24-5.77.93-7.19,5.66-11.69a31.35,31.35,0,0,1,12.82-7.29c4.09-1.19,7.78-3.06,8.2-4.15,1-2.75-12.63-16.48-17.39-17.46-2-.42-4-1.28-4.43-1.93s-1.87-1.16-3.26-1.16c-4.67,0-8.83-2.83-12.13-8.26-2.39-3.94-5.41-6.41-11.23-9.21-8.14-3.91-10.14-4-10.14-.48,0,2.81-3.77,10-7.35,13.93a19.44,19.44,0,0,0-3.91,7.37c-1.2,5.41-6.22,18.28-8.11,20.77-.84,1.11-2.6,5.15-3.92,9a115.35,115.35,0,0,1-5,12c-1.42,2.77-2.57,5.83-2.57,6.8s-1.81,5.35-4,9.73-4,8.79-4,9.79-1.51,4.79-3.35,8.41-3.35,7.11-3.35,7.73a24.53,24.53,0,0,1-1.9,5.37c-7,15.72-9,21-8.62,23,.26,1.27,3.11,3.34,6.39,4.62,8,3.11,13.91,9.8,12.93,14.56-.4,2-1.06,9.52-1.46,16.8s-1.33,14.37-2.07,15.75c-1.29,2.4-2.55,2.75-11,3-2,.07-3.69.52-3.69,1,0,1.43-8.1,2.16-8.94.8-.46-.75-1.15-.66-1.68.21s-4,1.61-7.88,1.78-7,.92-7,1.68-.62.48-1.34-.62c-1.14-1.73-1.5-1.74-2.55-.1-1.8,2.79-29.6,2.18-29.6-.66,0-.79-2.13-2.44-4.73-3.68-4.52-2.16-5.09-2.13-12.4.51-15.68,5.67-19.17,6.4-26.66,5.63l-7.43-.77.71-4.37c.39-2.4.46-4.62.14-4.93s-4.29-.06-8.84.56c-7.52,1-8.56.86-11.39-1.8a9.82,9.82,0,0,1-3.12-7.2v-4.27l-9-.72c-9.49-.76-13.79-3.62-13.79-9.14,0-2.93,7.09-7,10.45-6.07a108.24,108.24,0,0,0,11.66,1.5l9.38.84-3-2.82c-3.75-3.51-3.74-3.52.33-7.3,2.85-2.63,3.35-4.3,3.35-11,0-6.45-.49-8.21-2.68-9.58-3.71-2.32-3.41-3.47,2.35-8.9,4.55-4.3,8.89-6.21,15.37-6.78,1.26-.12,3.79-2.41,5.62-5.1,3-4.41,3.25-5.81,2.55-14.09-.76-9.13-.73-9.24,3.76-13.45,2.49-2.34,5-4.25,5.62-4.25s.59-.76,0-1.68-1.16-16.34-1.24-34.26c-.11-24.06-.6-33.43-1.9-35.85-1.55-2.9-1.42-3.64,1.13-6.36s2.73-3.31.83-6c-1.14-1.62-2.87-3-3.84-3-2.31,0-3.7-7.18-2.17-11.22s7.62-8.88,11-8.88c3,0,3.16-2.37.45-6a10.14,10.14,0,0,1-2-5c0-1.33-1.2-4.68-2.68-7.43a23.23,23.23,0,0,1-2.68-8.76c0-2.31-.65-3.63-1.67-3.41-2.95.62-31.42-7.93-38.54-11.58a94.29,94.29,0,0,0-10.72-4.06c-4.05-1.29-9.18-3.15-11.39-4.13s-7.34-3.07-11.4-4.63a98.52,98.52,0,0,1-11.68-5.35c-6.58-3.84-12.9-4.66-15.14-2-1.61,1.94-1.55,2.42.5,3.56,2.71,1.52,11.77,9.15,13.24,11.15,1.61,2.21,1.15,11.19-.65,12.65-.92.74-3.43,2.88-5.56,4.74s-4.62,3.39-5.53,3.39a5.75,5.75,0,0,0-3.43,2.14c-1.5,1.81-1.41,2.35.58,3.46a9.27,9.27,0,0,1,3.44,4.23c1.15,3.08-.95,20.68-4.34,36.41-4.63,21.45-5.48,27.37-5.49,38.42,0,11.36-.1,11.65-3.88,13.89-3.24,1.91-3.77,3-3.27,6.48a31.74,31.74,0,0,0,1.58,6.45c.63,1.46,0,3.21-1.82,5-2.32,2.32-2.52,3.22-1.18,5.37,1.25,2,1.25,3.36,0,6.08a19.45,19.45,0,0,0-1.6,6.64,24.9,24.9,0,0,1-1.89,7.64c-1.76,4.23-1.67,4.79,1.34,8.54,3.49,4.36,4,9.21,1.83,17-1.88,6.77-4.08,8.62-12.45,10.5-6.86,1.53-7.39,1.45-12.73-2.09-3.07-2-5.66-4.82-5.75-6.2s-.23-3.26-.31-4.18a41.88,41.88,0,0,1,1.72-8.17c1.65-5.78,1.61-6.91-.36-10.26-1.32-2.22-2.23-6.65-2.23-10.82,0-4.75-.74-7.88-2.26-9.56-2.11-2.33-2.11-2.78-.09-6.2s2-3.8-.08-5.12-2-2-.58-6.07c2.64-7.32,2.16-12.31-1.34-13.85-2.83-1.24-3-2.2-3.26-15.39-.63-36-2.48-60.18-5-65.68s-1.21-9.16,3.59-9.63c4-.4,7.12-3.77,3.46-3.77s-11.82-6.74-11.82-9.67a26.48,26.48,0,0,0-1.54-7.14c-1.32-3.63-1.17-4.79,1-7.78,2.74-3.78,14.25-10.26,18.23-10.26,4.64,0,2.44-5-5-11.34-4.06-3.46-9.45-6.87-12-7.57-3.52-1-4.78-2.16-5.44-5.16-1.29-5.86-2-6.19-25.19-12.18a42.27,42.27,0,0,1-7.37-2.57c-4.64-2.53-11.9-5.28-21.06-8-10.95-3.2-29.65-9.24-33.51-10.82-1.47-.6-7.81-3-14.07-5.35l-15.08-5.66c-3.32-1.27-3.69-2.05-3.69-7.86a35.43,35.43,0,0,1,1.28-9.82c.71-1.85,1.65-8.68,2.1-15.17,2.35-34.24,4.76-45.87,10.34-49.88s16.44-7,29.7-8.21c10.49-.95,14.83-2,20.77-5.1,8.5-4.42,9.09-5.55,13.59-26.18,3.73-17.07,2.63-20.86-8.42-29.1-3.56-2.66-3.68-3.16-3.68-15.36s.09-12.63,3.27-13.43c1.8-.45,6.78-.4,11.06.11s13.51,1.08,20.52,1.26c31,.76,72.77,3.06,76.66,4.22,1.58.47,3-.67,4.52-3.75a72.48,72.48,0,0,1,6.51-9.78,145.71,145.71,0,0,0,8.72-12.74c2.45-4.05,4.89-7.67,5.41-8a77.77,77.77,0,0,0,6.1-8c2.83-4.05,8-11.38,11.5-16.27A131.3,131.3,0,0,0,416,415c2-4.13,4.08-7.52,4.72-7.52s2.78-3,4.76-6.62,4.42-6.94,5.41-7.32,8.9.22,17.58,1.33a261.53,261.53,0,0,0,34.34,1.62l18.55-.4,7.56-9.38c4.15-5.16,11.94-13.83,17.3-19.26S536,356.8,536,355.81s1.17-2.43,2.59-3.19,11.49-11.49,22.37-23.84S581.1,306,581.59,305.66s4.12-4.59,8.07-9.38c7.68-9.31,13.31-15.68,22.22-25.13,3.06-3.25,9.09-10.19,13.4-15.42s10.71-12.46,14.21-16.06,6.37-6.89,6.37-7.32c0-.91,8.81-11.34,20.63-24.42,4.5-5,9.69-11,11.53-13.39s8.21-9.88,14.14-16.64,13.76-16.22,17.4-21,11.76-14.51,18-21.61,12.92-14.88,14.77-17.31c3.14-4.14,6.31-7.75,21.91-24.88,3.43-3.76,6.23-7.31,6.23-7.89s4.38-5.65,9.72-11.28,11.2-12.41,13-15.1c3.75-5.56,10-9.74,12.88-8.63,1.07.41,7.23.81,13.67.89,14.8.18,49.94,4.54,64,7.93,5.9,1.43,17,3.51,24.79,4.62,43.78,6.31,53.47,7.78,58.57,8.92A87.48,87.48,0,0,0,982,73.79c8.59,0,9.61.31,13.27,4.06s3.86,4.41,2.51,8.81c-.94,3-5.09,8.26-11.52,14.49-5.53,5.36-15.08,15.18-21.22,21.83-8.73,9.45-44.11,45.9-79.3,81.7-3.76,3.82-2.49,6,11,19.19,15.54,15.16,23.3,21.57,36.58,30.25,6.63,4.33,12.36,8.23,12.73,8.66a82.26,82.26,0,0,0,8,5.24c14.28,8.62,20.89,15.4,26.62,27.3,10.72,22.26,10.77,22.45,8.26,34.18-1.22,5.68-3.23,12.27-4.47,14.63s-2.26,5-2.26,5.94c0,5.15-12.31,24.08-21.68,33.35-2,1.95-6.34,6.82-9.7,10.81a92,92,0,0,1-11.34,11.28c-2.87,2.21-10.14,7.77-16.15,12.35s-13.46,10.36-16.57,12.84c-5,4-15.05,10.17-31.11,19.07-3,1.64-7.21,4.05-9.46,5.37l-4.1,2.39,8.44,16.88c4.64,9.28,9,17.54,9.65,18.34s5.83,1.3,13.75,1c10.86-.37,31.65.9,44.71,2.72,3.82.54,22.47,2.66,35.52,4,11.8,1.25,23.95,3.45,27.16,4.91,3.59,1.64,7.69,9.6,7.69,14.93a26.08,26.08,0,0,0,1.83,7.93c2.79,6.87,3.76,21.36,2.24,33.67-.74,6.08-1.43,14.68-1.53,19.1a137.59,137.59,0,0,1-1.34,15.41c-.65,4.06-1.42,20-1.73,35.52s-1.14,29.65-1.84,31.5a9.65,9.65,0,0,0-.61,5.23c.55,1.57-.81,1.71-7.9.83-16.35-2-15.86-2.16-18.42,5.19s-8.26,11.53-15.58,11.54a40.6,40.6,0,0,0-9,1.38c-4,1.11-5.24,2.3-6.53,6.2a46.39,46.39,0,0,1-4.76,9.5c-2.7,4-2.9,5-1.4,7.16,2.52,3.6,1.13,10.37-2.64,12.84-2.29,1.5-3.19,3.33-3.19,6.51,0,3.49-1.27,5.62-6.08,10.21l-6.08,5.79,3.4,2.48c4.27,3.11,4.28,5,0,9-2.61,2.45-3.31,4.36-3.16,8.61.19,5.38-1.14,15-5.07,36.54-1.83,10-1.81,11.25.23,14.37,2.17,3.32,2.12,3.53-1.94,7.58-3.65,3.65-4.15,5-4,11.09a81.56,81.56,0,0,1-1.3,14.29c-3.1,15.95-3.32,21.18-1,24.7,3.61,5.52,2.79,10.8-2.5,16.09-5.11,5.12-5.59,6.12-2.93,6.12,1.4,0,1.7,4.76,1.45,23.12-.18,12.72-.9,25-1.61,27.25-.8,2.58-.81,5,0,6.38,2.55,4.55-2.51,6.51-8.62,3.35-1.65-.85-3.9-2-5-2.49-1.35-.63-2.68-5.26-4.06-14.19-1.13-7.3-2.5-14-3.06-14.88s-.07-4.51,1.07-8c3.53-10.86,4.68-24.57,2.43-29a14.18,14.18,0,0,1-1.09-8.77c.67-4,.29-5.46-2-7.52-2.43-2.2-2.7-3.5-1.95-9.46.7-5.63.46-7.07-1.28-7.73-2.43-.94-2.87-6.34-.69-8.53,1-1,.95-2.25-.32-4.28-1.43-2.28-1.45-3.37-.11-5.51,2.63-4.21,2-9-1.81-12.74-2.6-2.6-3.1-3.91-2-5.22s1.34-32,.26-50.74c-.15-2.66-4.54-3-21.84-1.5l-10.06.85L846,778c.06,9.58-.41,11.74-3.89,18.14-5.95,10.94-14.53,17.12-35.51,25.55-12.15,4.89-20.94,12.65-25.34,22.39-1.71,3.77-4.38,7.51-5.94,8.31-3.57,1.82-13.75,4.09-18.52,4.14-4.25,0-15.81,7.43-15.81,10.11,0,1,2.86,3.12,6.35,4.67a34.27,34.27,0,0,1,15.43,12.55c2.2,3.08,2.7,5.63,2.49,12.74-.25,8.44-.51,9.09-5.23,13.19a48.53,48.53,0,0,1-10.66,6.7c-5.57,2.34-7.13,4.7-4.27,6.47,2.46,1.52,3.73,6.51,2.16,8.45-1.35,1.68-3.89,18.76-5.8,39.08-.45,4.79-1.33,9.68-1.94,10.87-3.21,6.23-7.26,36.83-6.85,51.69.21,7.61-.08,8.53-3.64,11.53-3.27,2.75-4,4.61-4.81,12-.63,5.87-.45,9,.55,9.65,1.94,1.2,1.88,5.51-.13,8.72-1.24,2-1.23,3.36,0,6.11,1.39,3,1.23,4.11-1.08,7.35a17.24,17.24,0,0,0-2.7,8.5,64.6,64.6,0,0,1-1.58,11.59c-1.5,6.47-1.37,7.3,2.17,14.29,3,6,3.63,8.6,3.06,13.63-.88,7.82-6.06,13-11.85,11.82-2.07-.41-4.11-.16-4.56.55-1.62,2.62-8.18,1-14.38-3.62Zm3.39-19.54c-.79-9.08-2.17-12-5.16-10.84-2.77,1.07-2.31,8.57.77,12.51,1.44,1.84,2.63,4.11,2.65,5s.58,1.67,1.24,1.67.89-3.74.5-8.37Zm22.42,2.33c0-3.15-4.78-7.64-10.12-9.5-7.62-2.65-8.54-2.3-3.8,1.44a21.89,21.89,0,0,1,5.77,7.16c1.29,3.1,2.25,3.74,4.87,3.23C718.1,1129.91,719.58,1128.86,719.58,1127.92Zm-5-26.62c.6-4.31.9-8,.67-8.17s-6.3-.74-13.48-1.23l-13.07-.88,0,6.39c0,3.52.54,7.23,1.19,8.24,1.66,2.63,12.94,5.2,18.7,4.27,4.79-.78,4.89-.92,6-8.62ZM703.42,1081c10.56-.37,16.74-3.24,7.38-3.43a128.41,128.41,0,0,1-18.7-1.76l-6.7-1,4,3.42c2.55,2.17,3.29,3.43,2,3.44a9.1,9.1,0,0,0-4,1.35c-1.79,1.17-1.79,1.47,0,2.63,1.48,1,2.58.55,4.16-1.53,1.79-2.35,3.8-2.88,11.85-3.16Zm-2.61,3.38c0-.74-1.24-1.34-2.76-1.34s-2.39.6-1.93,1.34a3.55,3.55,0,0,0,2.76,1.34c1.06,0,1.93-.6,1.93-1.34Zm11.63-14.66a27.45,27.45,0,0,0,2.35-2.19c2.17-2.17,2.91-12.16,1.08-14.65-.54-.74-5.62-1.49-11.29-1.68s-12-1-14-1.72c-4.47-1.7-5.88,0-5.78,6.76s1.52,9.46,6.67,12.15c3.38,1.77,6.75,2.28,12.65,1.91C708.58,1070,712.31,1069.75,712.44,1069.71Zm-.75-38.1c.08-5.26.36-11.37.61-13.58,1.4-12.29,3-33.22,3.13-40.21.06-4.43.48-12.94.93-18.93.56-7.35.34-11.19-.66-11.81a3.68,3.68,0,0,1-1.49-2.85c0-1.42,1.7-1.92,6.37-1.89,5.25,0,6,.33,4.29,1.68s-2.67,7.73-4.47,26.43c-1.31,13.63-3.24,33.54-4.27,44.23-2.61,27-2.62,26.8,1.5,26.8,5.48,0,10-5.56,10-12.34a162.82,162.82,0,0,1,2-18.49c1.82-11.35,6.44-47.62,8.25-64.68l.68-6.38L735,940.94a20.8,20.8,0,0,1-5.75,1.36c-1.83,0-1.77-.3.38-1.87s.26-1.87-15.5-2c-18.21-.12-29.84-1.55-35-4.31-4.25-2.28-5.11.31-5.13,15.52,0,15.85,2.46,75.93,3.39,81.88a7.1,7.1,0,0,0,3.64,5.52c1.65.75,4.51,2,6.35,2.87,3.49,1.56,15.9,2.57,21.11,1.72,2.78-.45,3-1.23,3.17-10.05Zm-24.6,3.75c-.64-.64.13-93.27.78-94,.12-.12,4.74.25,10.26.83,9,.94,9.35,1.06,3.18,1.23-3.78.1-7.47.93-8.21,1.86C691,948,690.21,959,689.31,998.59c-.46,20.27-1,37-1.14,37.2s-.66,0-1.08-.43Zm21.76-91.72a1.34,1.34,0,1,1,1.34,1.34A1.35,1.35,0,0,1,708.85,943.64Zm-225.17,69c3.64-1.85,7.83-3.36,9.31-3.36s3.62-1.41,4.75-3.14a15.11,15.11,0,0,1,5.4-4.66c1.83-.84,3.33-2.14,3.33-2.89,0-2.54-7.57-1.43-10.18,1.49a30.32,30.32,0,0,1-7.92,5.4c-2.94,1.41-6.86,3.46-8.71,4.56a14.62,14.62,0,0,1-7.7,1.56c-2.77-.28-4.36.16-4.36,1.19,0,4.11,7.81,4,16.08-.15Zm66-.67c2.18-.91,1.05-1-4-.46-4.44.5-7,.29-7-.57,0-1.37,7.9-3.08,29.2-6.32,6.1-.93,11.3-1.92,11.54-2.2s.84-4.58,1.33-9.55l.89-9h-3.49c-4.08,0-45,6.68-46.51,7.58-.55.34-1,4.47-1,9.19,0,6.76.5,8.84,2.35,9.88,2.12,1.19,2,1.46-1,2.78-2.67,1.16-1.53,1.31,5.68.72C542.57,1013.6,548,1012.7,549.67,1012Zm-24.26-9.49c.47-4.74.62-9,.32-9.51-.51-.87-21.36-11.2-47.41-23.48-7-3.3-15.05-7.16-17.88-8.57-7.63-3.8-8.92-3.41-8.92,2.68a28.08,28.08,0,0,1-.78,7.27c-.89,2.32,3.82,7.59,6.78,7.59,1.09,0,2.36-1.51,2.83-3.35,1-4.15,2.9-4.21,8.73-.29,3.26,2.2,4.74,4.35,5.22,7.6.75,5,4,7.34,4,2.81,0-3.9,2.6-4.55,8.45-2.1,4.63,1.93,5,2.45,5,7.86,0,6.68.53,7.53,4.1,6.6a3.6,3.6,0,0,0,2.61-3.8c0-4.52,1.49-4.8,7.43-1.43,5,2.82,5.27,3.32,4.88,8.53-.4,5.36-.23,5.63,5.36,8.19,3.18,1.46,6.38,2.5,7.12,2.32s1.72-4.19,2.19-8.92ZM576.5,1008c1.29,0,2.34-.62,2.34-1.36,0-1.84-2.6-1.58-7.37.75-3.55,1.73-3.63,1.89-.67,1.3a37.7,37.7,0,0,1,5.7-.69Zm-101.8-6.26c1.32-.37,5.14-3.34,8.49-6.59,5-4.82,5.68-6.08,3.87-6.77-1.43-.55-3.72.57-6.48,3.18-5.79,5.48-9.19,7-15.3,7-2.85,0-5.88.7-6.73,1.54s-3.83,2-6.63,2.58c-3.06.62,0,.76,7.64.37,7-.37,13.81-1,15.14-1.35Zm-10.5-14.65c2.54-2.88,4.65-5.69,4.68-6.25.14-2.44-5.52-.65-9.54,3-2.42,2.21-5.66,4-7.21,4a51.66,51.66,0,0,0-9.92,2.11c-5.07,1.51-7.52,1.7-8.55.67-.8-.79-3.84-1.44-6.76-1.44s-4.95.37-4.49.83c2,2.05,10.76,3.05,23.41,2.69l13.74-.4,4.64-5.25Zm61.91-5.86c-.43-2.18-.21-4.33.51-4.77s1.29-2.29,1.29-4.12c0-2.65-1.19-3.83-5.89-5.85-3.24-1.39-11.23-5.06-17.76-8.17-11.64-5.54-16.45-7.76-28.71-13.26-9.67-4.35-22.9-3.09-15.74,1.5a36.89,36.89,0,0,0,5.64,2.92c1.39.51,2.17,1.3,1.73,1.74s-3.26-.17-6.25-1.37c-5.9-2.36-10.75-2.84-10.75-1.07,0,1.49,24.2,13.9,48.92,25.09,11,5,20.67,9.6,21.37,10.21a6.85,6.85,0,0,0,3.86,1.12c2.14,0,2.44-.67,1.78-4Zm-8.92-5.43c-1.11-.66-6.08-3.15-11.06-5.54s-9-4.83-9-5.42c0-1.58.72-1.38,6.21,1.7A106.51,106.51,0,0,0,515.38,972c3.92,1.46,7.47,3.22,7.9,3.91,1,1.58-3.4,1.51-6.09-.1ZM489,962.18c-8.45-3.5-20.27-9.44-19.77-9.94.66-.66,22.56,8.6,24.4,10.32,1.68,1.56-.32,1.4-4.63-.38Zm63.67,18.55c5.16-1.06,13.75-2.66,19.1-3.55,7.15-1.19,9.71-2.16,9.71-3.68,0-1.73-1.34-1.92-8.37-1.18-4.61.48-11.09,1.44-14.41,2.13s-11.31,2.32-17.76,3.62c-7.43,1.5-11.73,3-11.73,4.08C529.25,984.22,538.5,983.66,552.71,980.73Zm-3.57-7.62c19-3.29,22.85-4.28,23.31-6,.62-2.32-8.49-2.32-21.05,0-14.59,2.69-19.47,4.41-19.47,6.86,0,2.29-1.36,2.36,17.21-.85Zm-20.22-9.89c-2.3-2.3-12.94-7.52-15.33-7.52a1.6,1.6,0,0,1-1.76-1.34,1.39,1.39,0,0,1,1.42-1.34c2,0,.1-12.15-2.35-14.95-1.4-1.6-1.83-4.9-1.55-11.8.46-11.27-.64-12.6-9.42-11.38-10.51,1.47-11.4,2.7-10.63,14.77l.41,6.61,8.55-.48c10.3-.59,10.25,1.69-.06,3.06-9.17,1.22-10.16,2-6.32,5l3.2,2.48-4.7-.8a24.41,24.41,0,0,1-8.32-3.34,13.78,13.78,0,0,0-6.7-2.46c-1.95,0,1.32,2.25,9,6,6.63,3.27,12.66,6,13.4,6s7.39,3,14.76,6.61c13.64,6.64,20.14,8.56,16.42,4.84ZM508.48,953c-.46-.73-.19-1.34.59-1.34a1.39,1.39,0,0,1,1.42,1.34c0,.74-.27,1.34-.59,1.34S508.93,953.76,508.48,953Zm-7.35-3.32c-1.05-1.27-1.15-2-.27-2,1.62,0,3.51,2.54,2.58,3.47-.33.34-1.37-.3-2.31-1.43Zm56.16,12.82c3.32-.44,6.2-1.61,6.55-2.66.46-1.41-.18-1.66-2.58-1-1.75.49-7.38,1.81-12.5,2.92-11,2.38-13.7,4.09-4.09,2.56,3.68-.58,9.36-1.41,12.62-1.84ZM550.7,957c2.45-1.58.33-1.58-3.35,0-1.77.76-2,1.18-.67,1.23a8.26,8.26,0,0,0,4-1.23Zm9.6-4.07c1.27-3.65,1.59-3.84,3.08-1.81,1.87,2.56,2.53,1.84,4.48-4.84.76-2.58,4.19-11.93,7.63-20.77s8.69-22.72,11.67-30.83,6-15.49,6.74-16.4c1.1-1.38,7.32-17.66,10-26.13,1.1-3.5-.7-9.07-2.92-9.07-1.08,0-2.32,1.66-2.76,3.68-.79,3.66-1.39,5.34-4.62,13.07-.92,2.21-6.45,18.13-12.27,35.38s-11.2,32.32-11.95,33.51c-2.12,3.36-.29-5.27,4.38-20.64,3.88-12.79,5.89-18.7,11.72-34.51,1.43-3.87,4.22-12.47,6.21-19.1s4.49-13.07,5.56-14.3,2.28-4.86,2.69-8.05a40,40,0,0,1,3.24-10.77c3.16-6.31,3.22-6-1.52-7.09-2.2-.48-4.37-1.47-4.82-2.19s-2.31-1.89-4.14-2.59c-2.08-.79-4.13-3.28-5.44-6.62-2.09-5.31-2.15-5.35-9.27-5.35-3.94,0-7.17.61-7.17,1.35s-1.2,3.92-2.68,7.06c-2.17,4.63-2.42,6.56-1.34,10.36a42.07,42.07,0,0,1,1.34,9.67c0,4.11-.55,5.15-3.08,5.79s-3.1,1.73-3.2,5.72a83.31,83.31,0,0,1-2.26,13.66c-6.29,25.59-8.4,63.12-4.22,75,1.86,5.26,1.87,11.74.06,26.56-.7,5.75,2.9,6,4.88.28Zm4-10.67a24.12,24.12,0,0,1,1.11-5.36c.86-2.69,1.08-2.83,1.11-.67a15.57,15.57,0,0,1-1.11,5.36C564.74,943.27,564.3,943.53,564.33,942.3Zm-44.46,12c0-.93,2.12-1.1,6.11-.51l6.11.92-.3-9c-.31-9.56-1.71-12.18-7.32-13.58-6.41-1.61-7.56,0-7.11,9.86.23,5,0,9.71-.51,10.53a2,2,0,0,0,1.9,3.2,1.3,1.3,0,0,0,1.12-1.42Zm25.27,0c7.39-1.59,8.09-2.74,7.7-12.66-.29-7.22-2.26-9.08-8.67-8.14-7.33,1.07-9.56,4.07-9.56,12.83,0,10.28-.05,10.24,10.53,8Zm357.77-30.07c-.44-17.53-1.17-20.19-5-18.15-6.46,3.46-8.69,18.41-5.42,36.43,2,11.17,3.86,12.15,7.72,4.15,2.77-5.72,3-7.94,2.68-22.43ZM721,932.67c.43-.65,3.72-2.3,7.32-3.66,6.89-2.62,9.41-5.47,4.83-5.47-1.49,0-3.09-.62-3.56-1.37s-4.87-1.3-9.79-1.23c-9.3.13-31.92-2.15-35.7-3.6-3.09-1.18-7.89,3.37-6,5.67,2.34,2.81,14.32,5.6,28.35,6.61,7.93.57,12.73,1.45,12.24,2.24s-2.36,1-4.25.65c-4.4-.84-7.93.32-5.52,1.81C711,935.56,719.92,934.33,721,932.67ZM486.1,924.8c.44-9.28-1.19-12-7.22-12-3.62,0-4.58,2.29-4.58,10.9,0,6.23.28,6.78,4.36,8.55,2.39,1,5,1.71,5.69,1.5s1.53-4.24,1.75-9Zm242.19,8.12c.45-.74.19-1.34-.59-1.34a1.38,1.38,0,0,0-1.42,1.34c0,.73.26,1.34.59,1.34S727.83,933.65,728.29,932.92Zm-30.52-.81a2.7,2.7,0,0,0-2.57-.11c-1.07.43-.75.75.81.81s2.2-.26,1.76-.7Zm-160.84-1.34a2.67,2.67,0,0,0-2.57-.11c-1.07.43-.75.75.81.81S537.38,931.21,536.93,930.77Zm147.69-1.06c-1.3-1.22-10.61-6.08-10.61-5.53,0,1.64,6.2,6.06,8.51,6.06C684,930.24,684.92,930,684.62,929.71Zm-326.28-6.48a8.19,8.19,0,0,0-4-4.81c-3.07-1.4-3.1-1.34-1.31,2.18a47.35,47.35,0,0,1,2.62,6.18C356.84,930.66,359.36,927.32,358.34,923.23ZM341.65,921c-.82-3-2.06-5.5-2.77-5.5-1.6,0-1.6.44-.06,4.3.68,1.69,1.6,4.22,2,5.61,1.57,4.89,2.25,1,.79-4.41Zm180.19-15.56c2.68-9.91,4.69-12.31,4.83-5.76a23.13,23.13,0,0,0,1.26,7.11c1.11,2.55,1.22,2.51,2.2-.67l1-3.35.74,4c.52,2.88,1.49,4,3.4,4,3.23,0,3.89-3.49,5.94-31.49,1.82-24.92,2-30.67,1.13-31.57-.4-.4-2.46-.85-4.58-1l-3.85-.27-.84,14.07c-.46,7.74-.92,16.49-1,19.44-.12,3.37-.6,4.71-1.29,3.62s-1-10.45-1-21.11c.08-14.67-.29-19.37-1.56-19.37-1.86,0-2,2.33-1.79,21.78.1,7.28-.38,13.07-1.07,13.07s-1.45-8.55-1.71-19.1c-.46-19.19-1.17-22.87-4.19-21.7-1.17.45-1.61,5.47-1.56,17.7,0,9.38-.58,26.53-1.36,38.11s-1.22,21.7-1,22.5c1,3.11,3.91-1.54,6.22-10.05Zm8.86-6.8c.06-1.56.38-1.88.81-.81a2.68,2.68,0,0,1-.11,2.57c-.44.44-.76-.35-.7-1.76Zm-6.13-9.89c-.48-2.18-.24-5,.53-6.37,1.11-1.9,1.4-1.09,1.43,4C526.58,893.61,525.84,894.51,524.57,888.74ZM701,913.19c-2-.37-2.85-1.27-2.4-2.45,1-2.71-1.32-3.63-3.56-1.39-1.47,1.48-3.14,1.64-7.14.72-7.36-1.71-9.48-1.64-7.61.23.83.82,3.47,1.73,5.86,2s4.65.8,5,1.17,3.43.59,6.81.49,4.74-.45,3-.78ZM491.36,912a2.71,2.71,0,0,0-2.57-.1c-1.07.43-.75.74.81.81s2.21-.26,1.76-.71Zm56.87-16.62c1.29-8.47,3-21.32,3.74-28.55s1.74-14.53,2.17-16.23c.93-3.68-3-5.91-5.55-3.18-1.62,1.72-7.29,47.29-7.28,58.45,0,4.74.42,5.72,2.29,5.36s2.76-3.55,4.63-15.85ZM348.87,909.32c1.36-.52,2.12-2.45,2.12-5.36,0-2.5-.15-4.58-.33-4.62s-3.8-.4-8-.79l-7.71-.73v4.79c0,4.14.5,4.9,3.69,5.6,2,.45,4.28,1,5,1.26a6.09,6.09,0,0,0,5.25-.15Zm353.28-4.39c0-1.45-4.06-2.61-6.37-1.84-.93.32-1.35,1.12-.93,1.8,1,1.57,7.3,1.6,7.3,0Zm12.43.3a7.77,7.77,0,0,0-4-.05c-1.3.34-.56.64,1.65.67s3.28-.25,2.38-.62Zm6,.07a2.71,2.71,0,0,0-2.57-.1c-1.07.42-.75.74.81.81s2.21-.26,1.76-.71ZM511,891.7c.47-7.18,1.24-17.14,1.71-22.11.56-5.87.38-9.05-.51-9.05-3.17,0-8,41.2-5.12,43.21C509.8,905.63,510.1,904.69,511,891.7Zm189.18,7.71c-3.66-1.57-4.69-1.57-4.69,0,0,.74,1.66,1.3,3.69,1.25C702.4,900.57,702.52,900.43,700.14,899.41Zm-8.71-.59c0-.33-.6-1-1.34-1.42s-1.34-.19-1.34.59a1.38,1.38,0,0,0,1.34,1.42C690.83,899.41,691.43,899.14,691.43,898.82Zm48.25-3.6c14.79-3.48,15.8-7.22,2.31-8.61-7.52-.77-15.71-3.21-15.71-4.68,0-.72-4.94-1.28-11.24-1.28-14.84,0-24.46-3-27.86-8.8l-2.5-4.25-5.34,2.64c-5.66,2.8-13.94,12-13.09,14.61s21,9.48,32.55,11.32,31,1.37,40.88-.95Zm-246.46-4.86a44.36,44.36,0,0,0,0-4.61c-.08-.51.75-8,1.84-16.75s2-19.53,2-24c0-7.66-.21-8.26-3.27-8.85-1.8-.34-3.95,0-4.77.85-1.09,1.08-1.86.83-2.84-.9-.73-1.3-1.9-2-2.59-1.59-1.57,1-1.5,35.15.08,38.81.8,1.86,1.21,2.07,1.33.67.1-1.13.78-.54,1.55,1.34s1,6,.58,9.25c-.81,6.08.67,9.52,4.08,9.52,1.08,0,1.91-1.53,2-3.69ZM486.36,843c0-2.26.53-3.78,1.16-3.38,1.08.66.49,7.48-.64,7.48C486.6,847.14,486.36,845.29,486.36,843Zm14.9,48c.88-1.64,2-6.61,2.56-11.06s2.19-14.12,3.7-21.49c3.92-19.14,4-20.9,1.29-22.63a3.8,3.8,0,0,0-4.69,0c-1.89,1.2-2.78,5.57-4.61,22.78-3.44,32.3-3,41.2,1.75,32.4ZM350.6,887.87c.52-1.58-12.47-3.69-14.61-2.37-.67.41-.49,1.61.41,2.7,1.91,2.3,13.43,2,14.2-.33ZM741,879.31c1.64-1.06,1.46-1.34-1-1.53l-4.58-.35a2.26,2.26,0,0,0-2.13,1.54c-.67,2,4.76,2.24,7.71.34Zm154.27-5.77c-2.43-2.42-3.35.19-1.44,4.08l1.82,3.7.52-3.17c.29-1.75-.11-3.82-.9-4.61Zm-544.5,2.08c1.86-3.55-.5-8.37-4.11-8.39a68,68,0,0,1-8.18-.86l-5.11-.85.42,5.21c.38,4.57.92,5.32,4.45,6.07,7.52,1.59,11.26,1.24,12.53-1.18Zm371.71-.19c3.08-.12,3.54-.66,3.21-3.77-.37-3.45-1-3.75-12.31-5.95-6.55-1.27-14-2.5-16.61-2.73-4.42-.4-4.72-.17-5.11,3.93-.36,3.7.15,4.59,3.35,5.9,4.79,2,14.65,3.51,19.85,3.09,2.22-.17,5.64-.38,7.62-.47Zm178.1-8.23c1.63-.87,2.6-2.81,2.6-5.19,0-3.35-.6-3.9-5-4.63-9.31-1.54-9.72-1.36-9.72,4.39,0,3,.74,5.55,1.68,5.93a14.48,14.48,0,0,0,10.47-.5Zm-177-5.32c0-.74-.91-1.34-2-1.34s-2,.6-2,1.34.9,1.34,2,1.34S723.6,862.62,723.6,861.88Zm1.65-4c3.15-.73,10.46-2.29,16.25-3.47s10-2.66,9.38-3.28-5.37-.35-10.53.61-13.14,2.12-17.74,2.58c-8.26.82-8.37.78-10.44-3.22-3.09-6-18.24-15.06-28.78-17.25-18.45-3.83-19.15-3.92-17.22-2.21,1,.88,7.23,3,13.87,4.65,15.05,3.8,23,8.09,28,15,3.34,4.7,7.13,7.5,10.54,7.8a50.48,50.48,0,0,0,6.7-1.25Zm-378.4-17.8c.1-8.28.79-22.77,1.53-32.2s1-17.73.56-18.43-2.22-1.27-4-1.27-3.58-.64-4.06-1.41c-.58-1,1.44-1.1,6.29-.49,3.93.51,7.21,1,7.27,1.07s-.36,5.58-.93,12.22c-.81,9.28-2,32.45-2.83,52.94-.13,3.39.83,4,6.17,4,6.71,0,7.48-1.28,7.51-12.6,0-6.36,5.58-41.15,8-50.14,1-3.6.74-4.91-1.28-6.93-1.36-1.36-2.2-2.76-1.86-3.1s-5.89-.54-13.85-.45c-10.93.13-14.39-.24-14.13-1.5.18-.92-.57-1.68-1.68-1.68s-2,.59-2,1.3-.9,1-2,.53-1.71-1.24-1.36-1.81-1.21-1.81-3.48-2.76c-3.41-1.41-4.33-1.39-5.26.12a3.3,3.3,0,0,0-.43,3c.38.62,0,2-.88,3-1.05,1.27-1.32,5.12-.82,11.67.42,5.37,1.12,18.21,1.55,28.53,1.07,25.27,2.36,33.38,4.18,26.42,1.12-4.3,3.14-3.63,3.14,1,0,4.06.3,4.25,8.71,5.77,5,.89,5.72-1.23,5.91-16.83Zm-17.31-9c0-8.47-.42-22.5-.87-31.16-.78-14.85-.68-15.74,1.7-15.65a17.61,17.61,0,0,1,5.21,1.24c2.56,1.1,2.54,1.16-.33,1.25s-3,.54-3.21,14.5c-.1,7.93-.08,20.44.06,27.81s-.37,14.31-1.13,15.42c-1,1.43-1.39-2.43-1.43-13.41Zm28.15-44.22a1.39,1.39,0,0,1,1.42-1.35c.78,0,1.05.61.6,1.35s-1.1,1.34-1.42,1.34S357.69,787.56,357.69,786.83Zm347.56,64.8c-2.34-3.57-14.47-9.85-19-9.85-1.34,0-5.93-1.2-10.2-2.67-5.41-1.87-9-2.36-11.79-1.63l-4,1,5.88,2.44c3.24,1.34,6.93,3,8.21,3.64a10.81,10.81,0,0,0,3.82,1.2,22.62,22.62,0,0,1,5.71,1.85c4.45,2,20.92,7.37,22.69,7.47.57,0,0-1.54-1.29-3.49ZM733.19,845c4.41.86,6.73-3,2.47-4.16-3.21-.84-3.45-4.06-.61-8.11,1.55-2.22,1.72-3.61.67-5.58-.94-1.74-1-2.9-.06-3.45,1.69-1.05,1.76-4.7.09-4.7-.69,0-1.64,1.24-2.13,2.76a7.52,7.52,0,0,1-4.11,4c-2.49,1-3.23,2.21-3.23,5.53v4.31l-2.62-2.81c-2.47-2.65-4.68-3.44-14-5-4.78-.79-5.77-1.72-3.86-3.63,1.08-1.08,2.64-1.08,5.8,0,6,2.1,7.64,1.9,8.59-1.09.49-1.55,2.28-2.77,4.43-3q3.61-.42,4-3.1c.36-2.45.27-2.48-1.06-.33-1.73,2.79-5.34,3.12-5.34.5,0-3.62-3.31-4.94-6.61-2.63-2.58,1.81-3.26,1.85-4.29.3s-1.53-1.45-3,.49c-1.86,2.43-4.85,3.18-4.85,1.22,0-1-5.72-4.24-7.43-4.24-.34,0-.61.91-.61,2,0,2.42-1.56,2.6-3.73.43-2.41-2.41-3.22-.58-1.61,3.64.78,2.07,1.12,4.57.75,5.55-1.2,3.1-4.43,1.92-5.21-1.91a18.69,18.69,0,0,0-2.81-6.37c-2-2.56-2.06-2.45-2.29,2.35-.14,2.76-.31,5.73-.38,6.6s3,2.27,6.77,3.13c10.79,2.43,20.72,7.95,26.28,14.6l5,6,5.68-2c3.13-1.12,7.29-1.72,9.25-1.34Zm38.86,1.81c1.13-.92,3.62-4.44,5.54-7.82,3.45-6.07,9.77-12.36,18.55-18.43,3.85-2.67,4-3,1.17-2.19a18.16,18.16,0,0,0-6.11,3.47c-1.53,1.39-3.39,2.52-4.15,2.52-1.66,0-10.81,10.79-15,17.67-1.65,2.71-3.73,5.23-4.62,5.59s-.84.7.47.76A7.25,7.25,0,0,0,772.05,846.8Zm-27.68-6.27c0-3.07-3-3.12-3.74-.07-.56,2.12-.19,2.71,1.5,2.38a2.67,2.67,0,0,0,2.24-2.31Zm16.8-.88a11,11,0,0,0,6.23-4.09c1.19-1.81,3-3,4-2.61s2.12-.65,2.66-3c1.21-5.14,6.24-10.1,13.9-13.68,8.88-4.16,9.73-6.71,2.25-6.71-3.15,0-6.4-.67-7.22-1.5-1.1-1.1-2.31-.92-4.59.67-4.54,3.18-14.85,2.87-17.93-.54-1.73-1.91-2.75-2.25-3.43-1.15-1.28,2.09-5.26.47-5.26-2.13,0-1.13.61-2.05,1.34-2.05a1.5,1.5,0,0,0,1.3-1.68c-.06-2.27-6.66,5.36-6.66,7.71,0,2.17,1.54,3.28,5.59,4.07,3.76.72,6.44,3.4,4.22,4.22-1.19.44-1.11,1.93.32,6,2,5.67,1.64,7.81-1.33,7.81a5.54,5.54,0,0,0-3.44,2c-.91,1.1-2.19,2-2.84,2-1.55,0-1.52-4.48,0-6.1.67-.7,1.42-3,1.67-5.12.36-3.06-.47-4.56-4.12-7.37L743.28,813l1,5.36c.55,2.95,1.54,6,2.21,6.83,1.73,2.09-.18,3.49-2.33,1.71-1.38-1.15-1.8-1-1.8.68,0,1.2.56,2.17,1.24,2.17s2,2.27,2.85,5c2.31,7.14,2.45,7.28,6.76,6.45l8-1.54Zm143.47-5.55c1.77-5.37.76-7.16-3.88-6.89a41.87,41.87,0,0,1-8.62-.8l-5-1v4.78c0,2.69.91,5.55,2.08,6.52s2.75,2.36,3.58,3.13c2.88,2.68,10.27-.88,11.87-5.73Zm-133.65,3c.43-1.11.19-2-.53-2s-1.29.9-1.29,2,.23,2,.52,2S770.57,838.19,771,837.09Zm-224.31-.49c0-1.22-17.32-3.42-18.4-2.34-.35.35-.24,1.28.25,2.07,1.05,1.69,18.15,1.95,18.15.27Zm72.25-9.7c.91-3,1.46-5.65,1.22-5.85-1.62-1.36-6.63-3.4-8.35-3.4-2.16,0-6.15,6.45-6.15,10,0,1.77,5.49,4.29,10.18,4.67.8.07,2.2-2.35,3.1-5.37Zm41.67.84c0-.35-1.79-1.56-4-2.7-5-2.6-10.76-10.92-10.76-15.65a23.69,23.69,0,0,1,1.32-7.09c1.15-3,1.64-3.26,4-1.81,3.36,2.1,4.66.8,3.57-3.55-.52-2.07-1.81-3.41-3.26-3.41-4.56,0-7.23,3.39-8.38,10.65-1.4,8.83,1.46,15.3,9.06,20.52,4.72,3.24,8.47,4.58,8.47,3ZM518.53,823.6c0-2-2.86-2.64-4.46-1.05-1.21,1.22,1.8,4.63,3.27,3.72a3.39,3.39,0,0,0,1.19-2.67Zm-16.08,1c0-1.94-12.34-4.55-13.95-3-1,1-.88,1.8.56,2.71,2.42,1.53,13.39,1.73,13.39.24Zm174.43-5.74c-.51-7.47-2-9-4.73-5.07s-2.76,8.72.18,10.42c3.85,2.24,5,.91,4.55-5.35Zm-32.36,3.74a61.49,61.49,0,0,0-2.68-5.65c-3.36-6.59-3.35-11.79,0-19.24a60.17,60.17,0,0,0,2.65-6.43c0-.59-1.72-.48-35.19,2.32-17.92,1.49-19.76,1.88-19.76,4.18,0,5.45,11.13,11.85,29.48,17,2.58.71,8.91,2.84,14.08,4.72,9.08,3.31,11.39,4,11.39,3.14Zm256.67-1c.46-.76-.81-1.42-2.94-1.54l-3.77-.2,3.59-.55a9.48,9.48,0,0,0,5-2.28c.79-1,2-8.85,2.72-17.56s2-16.48,2.83-17.29c1.16-1.09,1.27,1.2.43,9.27-1.8,17.3-1.53,25.46.82,25.46,1.5,0,2.27-2.39,3-9.38.56-5.16,1.67-14.67,2.46-21.14,1.11-9.11,1-13.29-.31-18.54-2-7.65-3.59-6-3.76,3.75-.05,3.09-.65,6-1.34,6.38-2,1.24-3-4.1-2-10.64.9-6,.15-7.12-4.08-6a18.81,18.81,0,0,1-4.34.18c-6-.35-6.92,3.74-7.34,32.37l-.39,26.51-3-.75c-3.15-.79-4.27,1.24-1.34,2.43s12.89.9,13.74-.46Zm-236.57-2.09c0-1.15-.61-1.71-1.36-1.24a1.54,1.54,0,0,0-.59,2.09c1.15,1.85,2,1.51,2-.85Zm246,.75c.45-.73.22-1.34-.51-1.34a2.94,2.94,0,0,0-2.17,1.34c-.46.74-.23,1.34.51,1.34A2.93,2.93,0,0,0,910.57,820.33Zm-353.51-2.22c1.66-.41,3-1.21,3-1.78,0-1.43-6.25-3.71-13-4.73-3.08-.47-5.92-1.71-6.33-2.76-1.17-3.06-4-2.25-9.62,2.78-2.9,2.58-5,4.7-4.6,4.71a56.77,56.77,0,0,1,6,2c5.12,1.9,16.31,1.8,24.46-.23Zm331.39-28V764h-3.2c-1.77,0-3.54.86-4,1.92-.86,2.25.15,38.15,1.27,45,.76,4.67,2.78,7.12,4.81,5.86C888,816.45,888.45,804.43,888.45,790.1ZM660.3,814.23c4.59-3.22,3.8-6-1.71-6-4.76,0-5.63,1.34-3.88,5.92,1,2.65,1.86,2.65,5.59,0Zm68.29-1.41a2.69,2.69,0,0,0-2.56-.1c-1.07.42-.76.74.81.81,1.41.05,2.2-.26,1.75-.71Zm86.15-.53c1.63-1.06,1.46-1.3-.93-1.32-1.61,0-3.31.58-3.76,1.32C809,814,812.1,814,814.74,812.29Zm-282.81-5.06c0-3.66-5.19-14.43-7.09-14.8s-2.29.82-2.29,8.82c0,5.09.38,9.63.84,10.09,1,1,8.55-2.67,8.54-4.11Zm270.55,1.19c1.33-.84,1.4-1.41.27-2.11-1.92-1.19-5.44.05-5.44,1.92,0,1.67,2.68,1.77,5.17.19Zm-101.1-1.69c2.57-1.17,3.84-1.15,5.32.08s2.54,1.24,4.7-.1,3.09-1.38,4.39-.08c2.64,2.64,4.14,1.89,3.26-1.63-1.12-4.44.86-5.28,4.91-2.09,3,2.35,3.55,2.42,5.06.59.94-1.13,2.52-1.74,3.5-1.36a1.24,1.24,0,0,0,1.8-1.24c0-1,1.13-2.53,2.52-3.27,2.39-1.28,4.59-8.9,3.23-11.2-1.16-2-4.61,2.18-3.94,4.74.88,3.36-2.77,4.65-5.48,1.94-1.94-1.93-1.79-2.55,1.64-7l3.75-4.93-9.24.66c-10.23.73-35.79,3.54-40.22,4.42-2.13.43-2.68,1.33-2.24,3.64a6,6,0,0,1-2.19,5.59c-4.14,3.74-3.43,4.78,3.25,4.78,6.08,0,7.25.92,4.57,3.6-1.05,1-1,1.73.1,2.42.87.54,2.74-.29,4.19-1.86,3.09-3.31,5.21-3.64,5.21-.81,0,1.1-.6,2-1.34,2a1.34,1.34,0,0,0-1.34,1.34c0,1.7.47,1.68,4.59-.2ZM565.3,796.09c-3.12-2-4.23-1.38-3.38,1.79a33.61,33.61,0,0,1,.89,6.37c.08,2.88.39,2.63,2.23-1.81s1.85-5.34.26-6.35Zm268.47,3a16.58,16.58,0,0,0,4.53-7.41,23,23,0,0,1,2.74-6.81c4.16-6,.67-16.18-3.94-11.52-1.23,1.23-1.06,1.9.71,2.9,2.66,1.5,2,8.56-1.13,11.89-1.59,1.69-1.85,1.42-1.89-2l0-4-1.92,3.35c-1.37,2.4-1.93,2.72-2,1.12a18.32,18.32,0,0,0-2-6,36.11,36.11,0,0,1-2.74-7.61c-.69-3.39-1.18-3.71-4.41-2.86a42.32,42.32,0,0,1-6.3,1.13q-2.68.18-2.84,3.2c-.18,3.56.57,3.72,4.55.92s5.22-1.72,5.33,5.5c.08,5.67-.24,6.31-3.81,7.56-4.6,1.6-4.81,2.54-1.28,5.74,1.45,1.31,2.58,2.76,2.53,3.22-.56,4.47,4.73,1.62,7.83-4.22,1.78-3.34,2.41-3.78,2.8-1.95.28,1.3,1.06,2,1.74,1.59,2.28-1.4,1.28.67-3.73,7.77-5.11,7.25-4.24,7,5.24-1.49ZM517,803.57c.25-.25.1-1.57-.33-2.93-.53-1.67-3.95-3.45-10.51-5.48-11.76-3.63-10.89-3.62-18.08-.14-8,3.85-7.21,6.68,2.34,8.79,6.25,1.38,25.12,1.21,26.58-.24Zm147.93-3.34c.4-2.75,0-4-1.19-4-1,0-1.78-.61-1.78-1.34,0-1.28.86-1.58,5.35-1.89a3,3,0,0,0,2.44-2.47c.37-1.9-.51-2.34-4.67-2.32-7.79,0-8.67,1-6.68,7.78.92,3.13,2.1,5.27,2.62,4.75s.94.07.94,1.3c0,3.84,2.35,2.43,3-1.79Zm9.68,2.82c.41-.66-.25-1.58-1.45-2-2.61-1-3.77-.18-2.54,1.81,1.08,1.74,3,1.85,4,.23Zm122.72-.81c0-1.11-.23-2-.52-2s-.88.9-1.3,2-.19,2,.52,2,1.3-.91,1.3-2Zm13-2.25c1.71-1.6,3.11-3.41,3.11-4,0-2.11-2.94-1.08-5.44,1.91-4.52,5.41-2.82,7,2.33,2.11ZM780,798c1-2.71,1.73-3.2,2.92-2,2.19,2.19,5,1.94,5-.45s3.41-2.74,4.69-.67c.46.73,2.15,1.34,3.77,1.34,2.78,0,2.93-.58,2.93-11.06,0-6.48-.55-11-1.34-11-2.65,0-37.64,3.74-42.76,4.55l-5.24.84,4.89,3.33c2.69,1.83,4.9,4,4.91,4.91,0,1.52-3.62,4.77-8.9,8-4.35,2.66-1,3.39,4.16.92,4.71-2.24,5-2.24,6.27,0,.92,1.65,2,2,3.57,1.16,3.53-1.8,12.65-.27,11.78,2-.39,1-.11,1.86.62,1.86s2-1.61,2.69-3.57Zm-260.1-5.61c0-5.12-2.64-12.45-4.15-11.52-.67.42-1.21,2.41-1.21,4.43s-.7,4.37-1.55,5.22c-2,2,.81,5.69,4.39,5.69,1.88,0,2.52-1,2.52-3.82Zm17.55,1.05c2.14-1.53,3.9-3.67,3.9-4.76,0-2.09-5.72-4.93-13.07-6.5-4-.85-4.36-.65-4.36,2.37,0,2.72,7,11.66,9.1,11.66A25.77,25.77,0,0,0,537.42,793.44Zm7.55,2a2.67,2.67,0,0,0-2.57-.11c-1.06.43-.75.75.81.81s2.21-.26,1.76-.7Zm133.78-.62c1.15-1.85-3.69-5.47-5.26-3.93s0,5.36,2.4,5.36a3.69,3.69,0,0,0,2.86-1.43Zm126.86-5.94c.57-4.88-.68-6.33-2.15-2.5-.76,2,.09,7.19,1.17,7.19C804.87,793.53,805.31,791.42,805.61,788.84Zm-235.54.33c.29-.92.86-9.21,1.27-18.43,1.06-23.87,3.38-58.82,4.28-64.33,2.1-12.86,7.33-19.7,18-23.47,7.3-2.59,30.83-7.36,36.32-7.36,2.18,0,7.59-1.83,12-4.07,6.55-3.31,9-5.57,13.21-12,9.15-14.16,13-35.44,9.35-52.26-1.53-7.13-3.54-8.13-5.89-2.92-1.47,3.24-6.83,4.21-5.6,1a3.45,3.45,0,0,0-1.2-3.51c-1.06-.88-1.95-1.38-2-1.11s-.21,8.65-.41,18.6c-.29,14.82-.91,19.66-3.43,26.77-5.72,16.14-18.72,23.78-45.65,26.83-14.62,1.66-24.27,5.33-31.18,11.85-10.7,10.12-13.83,24-14.36,63.89-.07,5.16-.65,10.21-1.29,11.23-1,1.5-4.47.74-19.08-4.14-9.85-3.29-22.43-7.33-28-9s-13.07-4-16.76-5.36-12.73-4.25-20.1-6.54-24.56-7.74-38.2-12.1-31.13-9.86-38.87-12.21c-26.28-8-81.16-26.52-113.25-38.23-7.37-2.69-15.52-5.49-18.1-6.23a70.67,70.67,0,0,1-7.37-2.55c-1.47-.67-6.3-2.23-10.72-3.48a136.48,136.48,0,0,1-13.4-4.57,69.24,69.24,0,0,0-9.39-3.22,102.08,102.08,0,0,1-12.39-4.51c-6-2.59-8.38-4.3-8.38-6.12s.59-2.27,2.35-1.52c6.24,2.68,85.23,29.23,101.52,34.13,17.14,5.15,47,14.79,49.59,16,1.48.7,8.72,3.2,16.09,5.58s14.17,4.9,15.11,5.63,2.06,1,2.49.54,5.69.95,11.69,3.06,17.25,5.74,25,8.06,15.88,4.83,18.09,5.57,11.87,3.69,21.45,6.58,18.63,5.84,20.1,6.54a88.92,88.92,0,0,0,10.73,3.42c9.69,2.56,13.1,3.58,26.13,7.87,21.61,7.1,28.57,9,30.34,8.34,2-.77,2.62-16.22.75-19.17-1-1.52-23.65-9.32-35.78-12.3-6.18-1.52-32.42-9.5-57.63-17.55-9.59-3-22.55-7-28.82-8.8s-17.12-5.06-24.12-7.27c-13-4.09-27.48-8.31-48.93-14.25-6.63-1.84-13.26-3.87-14.74-4.51-3.81-1.65-36.73-11.83-41.55-12.84-2.21-.47-10.65-3-18.76-5.6s-20.17-6.12-26.81-7.79C230.35,635.43,203,624.2,218,626.64c3.19.52,5.69.39,5.69-.29,0-1-12.45-5.72-15.1-5.72-2.12,0-5,4.63-5,8.06,0,2.11-.57,4.2-1.27,4.63-2,1.23-2.26-12.35-.44-22.74.9-5.16,2-11.59,2.38-14.29a17,17,0,0,1,5-9c5.16-5,4.34-6.38-2.07-3.33a13,13,0,0,0-6.89,7.53C198,597,196,616,194.75,643L194,659.25l7.8,2.24a66.49,66.49,0,0,1,12,4.67,35.85,35.85,0,0,0,8.71,3.4c9.31,2,60.78,20.32,97.68,34.76,10.69,4.19,27.57,10.31,37.52,13.6s19.91,6.83,22.12,7.86a51.25,51.25,0,0,0,8,2.8c5.42,1.25,39.68,12.54,42.26,13.92a34.67,34.67,0,0,0,6.66,2.11,30.29,30.29,0,0,1,6.66,2.19,83.17,83.17,0,0,0,10.1,3.73c4.42,1.4,12.86,4.38,18.76,6.61s15.85,6,22.12,8.28,18.93,7.1,28.14,10.62,21.88,7.75,28.15,9.39,12,3.53,12.66,4.2c1.86,1.78,6.1,1.48,6.71-.46Zm52.33-1.52c10.32-1.13,23-2.63,28.15-3.34s14.51-1.67,20.77-2.14,15.92-1.4,21.45-2.07,18.8-2.17,29.49-3.33,24-2.68,29.48-3.39c11-1.41,46.7-5.24,56.29-6,13-1.09,35.25-3.69,58.05-6.77,13.13-1.77,25.86-3.22,28.3-3.22,4.26,0,4.46-.25,5.28-6.22,1.24-9,1.05-16.29-.45-17.22-.72-.44-8.41-.12-17.09.71s-18.5,1.73-21.81,2-12.07,1.12-19.44,1.89-17.32,1.64-22.11,1.91c-8.75.5-52.43,5.07-73.72,7.72-6.26.78-16.82,1.68-23.45,2A170,170,0,0,0,702.82,752c-3.68.72-16.05,1.93-27.47,2.7s-21.77,1.7-23,2.07c-2,.6-36.86,3.35-45.38,3.57-1.84,0-7.46.61-12.47,1.24-9.06,1.14-13.63.17-15.94-3.38-.61-.93-1.15-.75-1.54.54-.93,3-2.95,29.25-2.38,31s20.19,1,47.74-2Zm128,1.86a1.34,1.34,0,1,0-1.34,1.34A1.34,1.34,0,0,0,750.4,789.51Zm-3.66-5.7c.37-2.4.48-4.56.25-4.82s-2.27-.06-4.53.44c-4.6,1-5.6,3.37-1.44,3.37a2.37,2.37,0,0,1,2.68,2.68c0,4.35,2.32,3.07,3-1.67Zm-388-7.42c2.4-1.23,4.36-3,4.36-3.94,0-2-1.15-2-9.07-.49-5.08,1-14.05.12-20.76-2-1.77-.56-2.34,0-2.34,2.41,0,6.4,18.08,9,27.81,4Zm135,.81c5.18-2.36,4-6.8-2.19-8.33-6.68-1.65-9-.54-8.18,3.88.55,2.89,2.54,4.67,6.63,6a23.6,23.6,0,0,0,3.74-1.5ZM364.4,766.05c3.15-1.8,2.8-1.92-6-2.06-12.56-.19-31.53-2-34.84-3.38-2.47-1-2.52-.89-.67,1.37,3.68,4.53,9.52,6,24.12,6,9.75,0,15.1-.58,17.43-1.91Zm-34.49-8.25a7.63,7.63,0,0,0-4,0c-1.31.34-.56.64,1.65.67s3.28-.25,2.37-.62Zm-5.76-4c.84-.77-2.87-3.07-5-3.09-.92,0-1.67,1.22-1.67,2.75,0,2.25.56,2.6,3,1.84a15.22,15.22,0,0,0,3.65-1.5Zm6.07.91c-3.69-1.59-5.8-1.59-3.35,0a8.29,8.29,0,0,0,4,1.22c1.32,0,1.1-.46-.67-1.22Zm253-1c1.33-.38,2.35,0,2.35,1,0,1.25,2.7,1.44,11.05.78,6.08-.49,15-1.17,19.77-1.52,16.22-1.18,18.12-3.34,2.21-2.5-10.2.53-14.29.33-13.66-.68.49-.8,2.81-1.43,5.16-1.42s12.42-.89,22.38-2,36.18-3.57,58.3-5.47,43.22-4.25,46.91-5.22a54.7,54.7,0,0,1,10.05-1.78c9.29-.06,65.76-4.65,70.7-5.74,3.13-.7,14-1.6,24.12-2,19.52-.78,45.44-3.34,68.7-6.79,23.42-3.48,22-2.72,23.14-12a104.68,104.68,0,0,0,.67-15.37c-.31-6.46-.69-7.33-3-7.09-1.47.16-9.92,1.19-18.76,2.3-22.72,2.86-44.81,4.92-59.64,5.57-7,.31-22.39,1.43-34.18,2.48-21.53,1.94-36.23,2.8-71,4.17-10.32.4-22.68,1.29-27.47,2s-18.07,1.59-29.49,2c-30.42,1.17-85.49,4.54-89.12,5.45-4.26,1.07-6.27,6.63-5.78,16,.38,7.31.66,7.9,4.16,8.83,4.38,1.16,13-1.91,13-4.63,0-3.06-1.7-3.64-4.15-1.43a5.3,5.3,0,0,1-5.13,1.25c-3.14-1-3.81-4.72-.86-4.72,1.06,0,2.3-1.2,2.77-2.68.89-2.8,6.21-4.9,8.64-3.4.77.48,1.41,3.84,1.41,7.47,0,8.68-3.16,11-14.28,10.41l-7.83-.41.3-12.73c.46-18.88.25-18.46,10.07-19.58,7.08-.8,7.89-1.15,5.34-2.28a7.22,7.22,0,0,0-6.41.21,17.72,17.72,0,0,1-5.85,1.55c-3.38,0-5.41,2.81-7.48,10.34l-1.76,6.41-.12-7.5c-.18-11,1.46-12.06,22.39-14.19,27.65-2.8,29.79-3,44.5-3.83,7.74-.44,15-1.08,16.2-1.4s15.34-1.48,31.5-2.55,35.1-2.59,42.1-3.37,26.91-1.69,44.23-2,32.4-.82,33.51-1.07,4.42-1.11,7.37-1.91,18.93-2.14,35.52-3c39.72-2,69.56-5.46,71-8.11,1.27-2.39,3.18-43.16,3.45-73.69.18-20.23,1.93-36.51,4.68-43.68,1.77-4.62-.32-6.44-5.55-4.84-5,1.53-53.88,3.36-72.87,2.73-18.64-.62-51.6-.39-125.32.86L666,554.17l-7.37.11-1,13.41-1,13.4,5.18,4.69c2.85,2.58,5.92,6.8,6.83,9.38,2.49,7.12,3.38,33.31,1.46,43.17-3.26,16.75-6,22.69-13.69,29.62-9.62,8.67-14.64,10.62-36.64,14.18-13.6,2.2-21.05,4.14-27.08,7-7.67,3.71-8.52,4.56-10.88,11-1.72,4.67-2.85,12.4-3.44,23.69-.49,9.22-1.26,20.32-1.72,24.68-.78,7.41-.67,7.86,1.71,6.89,1.4-.58,3.6-1.35,4.89-1.72Zm8.38-1.7a2.85,2.85,0,0,1,2.09-1.34,1.31,1.31,0,0,1,1.26,1.34c0,.73-.94,1.34-2.09,1.34S591.12,752.71,591.58,752Zm8.46-.92a2.68,2.68,0,0,1,2.57.11c.44.44-.35.76-1.76.7C599.29,751.81,599,751.49,600,751.06Zm-11.48-5.91c-2-2.15-2.37-21.91-.33-20.65.73.46,1.34,3.39,1.34,6.53,0,9.67,1.67,10.74,15.12,9.62,7.45-.62,12.12-1.65,13.15-2.91,2-2.37,3.2-13.82,2-18.6-.83-3.31-1.21-3.45-6.86-2.6-3.83.57-6,.39-6-.5s3.37-1.82,7.49-2.33c10.63-1.33,12,.37,11.56,13.85-.45,12.51-1,14.62-4.49,16.47-4.34,2.33-31,3.23-33,1.12ZM601.63,720A2.93,2.93,0,0,1,603,717.8c.74-.46,1.34-.23,1.34.51a2.93,2.93,0,0,1-1.34,2.17C602.23,720.94,601.63,720.71,601.63,720Zm62.07,30.82c2.2-.09,3.41-.72,2.91-1.53-1-1.69-19.75-.68-23.1,1.26-1.69,1,.25,1.22,7,.89Zm-288-3.21c3.63-1,6.81-2.37,7.06-3.11S381.3,741.72,379,740c-4.18-3.09-4.27-3.09-8.39-.65-3.24,1.91-6.75,2.44-15.74,2.34-6.35-.06-12.6-.7-13.87-1.41-1.65-.93.13-1.26,6.32-1.16,5.86.08,9.42-.52,11.07-1.89,2.3-1.89,2.21-2.05-1.46-2.85a62.39,62.39,0,0,0-9.32-1c-3-.09-6.12-.84-6.95-1.68-2.53-2.53-6.12-.25-5.22,3.33.74,3,.52,3.08-4.21,2.23-10.11-1.8-16.27,5.13-8.07,9.06,9.08,4.35,38.36,5.06,52.57,1.27Zm323.66-1.83c1.33-1.13-6.11-.31-7.93.88-1.42.93-.62,1.07,2.68.46a24.12,24.12,0,0,0,5.25-1.34Zm210.54.87c0-.74-.91-1.34-2-1.34s-2,.6-2,1.34.9,1.34,2,1.34S909.9,747.35,909.9,746.62Zm-187.76-2.18c1.35-1.22-15.5-.32-17.31.92-1.41,1,.77,1.11,7.37.48,5.16-.49,9.64-1.12,9.94-1.4Zm194.46.84a1.34,1.34,0,1,0-1.34,1.34A1.34,1.34,0,0,0,916.6,745.28ZM802,735.89c1-1.6-3-1.6-6.7,0-2.26,1-2,1.17,1.6,1.25C799.25,737.19,801.55,736.63,802,735.89Zm20.67-2.2c.3-.26-2-.48-5-.48s-5.58.57-5.58,1.26C812.06,735.59,821.25,734.91,822.67,733.69Zm20.88-1.82c.46-.73-.11-1.34-1.26-1.34s-2.09.61-2.09,1.34a1.31,1.31,0,0,0,1.26,1.34A2.85,2.85,0,0,0,843.55,731.87ZM355,729.19c0-.74-1.05-1.38-2.34-1.43-2.05-.09-2-.22.24-1.11s2.41-1.08.22-1.91a24.91,24.91,0,0,0-7-.91,29.4,29.4,0,0,1-9.44-2c-7.27-3-9.59-2.63-5.7,1a8.6,8.6,0,0,0,7.4,2.55c3.31-.36,4.31.12,4.9,2.35s1.78,2.8,6.22,2.8c3,0,5.48-.6,5.48-1.34Zm8.05,0c0-.74-.91-1.34-2-1.34s-2,.6-2,1.34.91,1.34,2,1.34S363.06,729.93,363.06,729.19Zm516,0c0-.74-1.05-1.33-2.34-1.32-2,0-2.06.21-.34,1.32,2.53,1.64,2.68,1.64,2.68,0Zm11.7-2.15a2.71,2.71,0,0,0-2.57-.1c-1.07.42-.75.74.81.81s2.21-.26,1.76-.71Zm-528.38-1.87a2.88,2.88,0,0,0-2.09-1.34,1.31,1.31,0,0,0-1.27,1.34c0,.74,1,1.34,2.09,1.34S362.84,725.91,362.39,725.17Zm566.27-4.32c0-.73-.95-1-2.12-.51a12.44,12.44,0,0,1-3.35.81A1.19,1.19,0,0,0,922,722.3c0,.64,1.51.87,3.35.52s3.35-1.24,3.35-2Zm-379-4.39c-.45-3.9-1.09-4.69-3.75-4.69s-3.2.68-3.2,3.8c0,4.54.86,5.58,4.64,5.58,2.48,0,2.79-.62,2.31-4.69ZM340.32,717.8c-.06-.74-1.24-1.34-2.63-1.34a6,6,0,0,1-3.55-1c-.56-.55-2.39-1-4.07-1s-3.42-.6-3.87-1.34-2.15-1.31-3.77-1.27c-2.11,0-1.12,1,3.51,3.27C335.38,719.79,340.53,720.75,340.32,717.8Zm200-1.93c1.41-5.37-6.93-9.39-8.49-4.1l-1,3.35-.13-3.61a7.84,7.84,0,0,0-3.12-5.7c-3.37-2.36-5.63-2.74-4.39-.74,1.4,2.26-.94,1.48-2.67-.89-2.45-3.34-6-1.3-6,3.43,0,2.92.78,4.23,3,4.92,1.79.56,3.15.34,3.46-.58.8-2.4,2.58-1.78,3.35,1.16.51,1.95,1.83,2.68,4.85,2.68,2.28,0,4.14.6,4.14,1.34,0,2.57,6.37,1.44,7.07-1.26Zm-27.17-9.3c0-5.23-3-7.69-5.89-4.8-3.7,3.69-1.7,8.66,3.48,8.66,1.76,0,2.41-1,2.41-3.86Zm-10.09-.1c1.23-2-.66-7.83-2.81-8.65-1.24-.48-2.42.55-3.31,2.88-1.12,2.94-.94,3.94,1,5.33,2.8,2.05,4.09,2.16,5.15.44Zm-9.8-6.8c-.55-4.06-2.18-5.93-4.12-4.73-1.62,1-2,6.48-.52,7.94,2.12,2.11,5.09.06,4.64-3.21Zm133.06,2.85c1.42-.56,2-1.32,1.34-1.7-1.95-1.08-12.65.36-12.65,1.71s7.64,1.43,11.31,0Zm-140.78-2.59c-.07-.86-.23-2.77-.34-4.25a2.64,2.64,0,0,0-2.88-2.68c-2.07,0-2.68.9-2.68,3.91,0,3.74,1.81,5.64,4.69,4.92a1.81,1.81,0,0,0,1.21-1.9Zm183.69-.18c.8,0,.8-.47,0-1.2-1.38-1.24-24.54.49-25.91,1.94-.46.48,4.9.52,11.9.09S668.55,699.78,669.25,699.75ZM477,694.27c0-3-.61-3.95-2.68-3.95s-2.68.9-2.68,3.91c0,3.67,2.08,5.83,4.36,4.55.55-.32,1-2.35,1-4.51Zm-7.61.87c1.07-2.76-.48-7.5-2.44-7.5-1.72,0-3.64,6.5-2.48,8.37C465.49,697.7,468.61,697.15,469.37,695.14Zm475.18-5.35c2.14-4.84,3.41-6,7.1-6.77,13.81-2.67,17.13-3.86,20.22-7.2,7.07-7.66,5.54-11.15-3.44-7.85-3.07,1.13-9.89,3.07-15.14,4.3-9.18,2.16-9.6,2.43-10.94,7.14-4.27,14.93-2.83,21.74,2.2,10.38Zm-483.26.88c.8-4.22.2-5.71-2.33-5.71-2,0-3.6,4.69-2.52,7.5C457.66,695.63,460.54,694.56,461.29,690.67Zm-8.43-3c0-2.54-.69-4-1.87-4-2.26,0-3.7,3.28-2.64,6,1.4,3.65,4.51,2.26,4.51-2ZM539.31,689c.45-.73.18-1.34-.6-1.34a1.39,1.39,0,0,0-1.42,1.34c0,.74.27,1.34.6,1.34S538.85,689.72,539.31,689Zm-94.16-1.67c.92-2.73-.51-6.37-2.5-6.37-1,0-1.87.45-1.88,1a25.62,25.62,0,0,1-.82,4c-.65,2.4-.26,3,1.92,3,1.49,0,3-.75,3.28-1.67Zm-8-.67a28.74,28.74,0,0,0,1.44-4.69c.76-3.16.47-3.69-2-3.69a6.65,6.65,0,0,0-4.67,2.35c-1.66,2.18-1.79,2.14-1.83-.53,0-3.14-3.77-5.32-5.74-3.36-2.71,2.71-.41,7.55,4.36,9.17,5.6,1.91,7.69,2.1,8.45.75Zm448.49-1.21c4.58-.48,7.61-1.31,6.75-1.84-1.75-1.08-12.77-.34-20,1.35L867.68,686l4.83.14a130,130,0,0,0,13.16-.74Zm24.9-3.15c.94-1.52-3.39-1.52-9.38,0-3.61.92-3.38,1,2.26,1.18C906.91,683.55,910.11,683,910.57,682.28ZM420.46,677.4c-.62-3.25-4.28-3.22-4.91,0-.54,2.81,2.48,5.37,4.25,3.6a4.64,4.64,0,0,0,.66-3.63Zm-7.35,2.53c.35-.56.31-2.67-.07-4.69-.79-4.11-3.66-4.91-5-1.38-.77,2-1.09,1.89-2.49-.86-2.06-4-4.17-3.8-4.71.53-.36,2.87.11,3.39,3.06,3.39,1.91,0,3.83.91,4.25,2,.81,2.11,3.9,2.73,5,1Zm513.85.2a2.71,2.71,0,0,0-2.57-.1c-1.07.42-.75.74.81.81C926.61,680.89,927.4,680.58,927,680.13Zm7.73-1.87c.46-.74-.07-1.34-1.18-1.34a3.65,3.65,0,0,0-2.84,1.34c-.45.74.08,1.34,1.18,1.34a3.62,3.62,0,0,0,2.84-1.34Zm-365.94-2.75c-.75-1.2-19.61-7.13-27.43-8.62a91.43,91.43,0,0,1-10.06-2.72,74.72,74.72,0,0,0-12.73-2.66,76.21,76.21,0,0,1-16.73-4.78c-5.14-2.17-10.87-3.93-12.73-3.93s-10-1.77-18.12-3.93c-19.87-5.31-38.34-9.48-42-9.48-1.66,0-7.06-1.22-12-2.72-17.35-5.25-27.7-8-77.35-20.25-5.9-1.45-14.34-3.81-18.76-5.24a173.8,173.8,0,0,0-19.07-4.5c-6.06-1-12.94-2.86-15.28-4-4.83-2.41-7.87-2.73-7.87-.84,0,1.48,11,4.9,34.84,10.82,9.22,2.3,18,4.66,19.44,5.27,4,1.61,16,4.8,40.88,10.8,12.16,2.93,30,7.47,39.54,10.09,23.88,6.51,29.55,8,38.87,10C464,651.32,501.37,661,530.59,669s40.27,9.91,38.16,6.5Zm-170.85-4c0-2.61-.68-4-1.93-4-2.63,0-3.45,1.65-2.54,5.13,1.17,4.44,4.47,3.62,4.47-1.11Zm-6.7-1.26c0-2.73-3.12-5.9-4.48-4.54-1.52,1.53-1,6.89.8,7.52,2.4.86,3.68-.17,3.68-3Zm189.5,1.64c1.83-1.83,13.6-4.28,20.93-4.36,12-.12,27-5.64,33.82-12.44,3.08-3,3-3.51-.91-5a13.7,13.7,0,0,1-5.52-4.66c-1.85-2.82-1.94-3.79-.52-5.5,3.35-4,6.5-4.87,10.6-2.83,3.71,1.85,3.9,1.79,4.72-1.46.46-1.86.28-4-.4-4.64s-8.06-2.39-16.38-3.79c-15.24-2.56-17.92-3.12-50.88-10.56-9.95-2.25-22.31-5-27.47-6-11-2.24-23.25-5.08-40.88-9.48-7-1.75-15.75-3.6-19.44-4.12a41.36,41.36,0,0,1-8.8-2c-1.15-.6-8.39-2.34-16.08-3.86s-19.11-4-25.38-5.47c-14.5-3.44-39-8.68-59.64-12.73-8.85-1.74-20.31-4.13-25.47-5.31s-16.92-3.6-26.13-5.39-21.58-4.76-27.48-6.63-11.47-3.39-12.4-3.4c-2.64,0-1.95,3.62.82,4.34,3.64,1,4.9,7.4,2.06,10.54a7.83,7.83,0,0,1-4.8,2.53c-3.28,0-3.65,1.26-4.22,14.25l-.48,10.91,4.36,2.08c2.4,1.15,8.8,3,14.21,4.12,12.37,2.56,39.57,9.49,44,11.21a63.61,63.61,0,0,0,11.15,2.26,58.13,58.13,0,0,1,12.26,2.81c4.68,2,32,9.43,42.27,11.57a49,49,0,0,1,8.77,2.6A50.18,50.18,0,0,0,427.45,634c7,1.14,23.68,4.47,33.45,6.69,2.58.58,13.13,2.7,23.45,4.7S505.23,650,507.81,651c5.94,2.51,28.05,9.08,36.86,11,3.68.78,12.73,3.51,20.1,6.06,15.36,5.32,14.66,5.15,15.93,3.89Zm-196.52-4.41c.45-4.4-1.36-7-4.14-5.93-2.25.87-3.16,7.26-1.3,9.11s5.1,0,5.44-3.18ZM962,665.92a220.58,220.58,0,0,0,21.44-6.71c5.64-2.17,11.33-4.27,12.64-4.68a2.2,2.2,0,0,0,1.64-3.06c-.49-1.55.41-3.1,2.64-4.56,3.09-2,3.39-3,3.39-11.57,0-10.54-.65-11-10.36-7.55-13.32,4.75-35,10.48-42.69,11.27l-5.47.57-1.55,11.56c-.85,6.36-1.08,12-.52,12.59s3.12.49,5.68-.17a102.29,102.29,0,0,1,11.35-2l6.7-.76-5.36,2.18a56.88,56.88,0,0,1-12,3c-3.76.46-6.85,1.59-7.19,2.62-.68,2.06,1.19,1.8,19.62-2.76Zm10.25-7.76c3.66-1.58,4.69-1.58,4.69,0,0,.73-1.66,1.29-3.68,1.24C970,659.32,969.85,659.18,972.22,658.16Zm11.39-2.62c0-1.32,5.2-3.36,6.14-2.41.32.31-.93,1.26-2.78,2.1s-3.36,1-3.36.31ZM375.46,666.39c.7-2.67-1.1-6.89-2.93-6.89-1.29,0-2.84,6.85-1.9,8.37C371.82,669.79,374.81,668.87,375.46,666.39Zm-7.71-3.54c0-2.09-.68-4-1.51-4.3-1.77-.59-3.33,4.37-2.26,7.16,1.22,3.17,3.77,1.23,3.77-2.86Zm-6-2.09c0-3-.63-3.94-2.53-3.94-3.36,0-4.68,6.28-1.68,8s4.21.54,4.21-4Zm635.3.66c0-1.56-.79-1.87-3-1.19-5.18,1.56-5.85,3.29-1.27,3.29,3,0,4.29-.63,4.29-2.1Zm-658.78-8.68c-.92-2.9-4.56-3.61-4.86-1-.61,5.37-.32,8.49.85,9.33C336.11,662.46,339.25,655.9,338.24,652.74Zm15.43,6.17c0-4.09-1.86-5.37-4-2.77-2,2.42-.83,6,2,6,1.28,0,2.05-1.23,2.05-3.27Zm-8-2.94c0-2.48-.61-3.25-2.33-2.92-2.86.55-3.93,5.06-1.55,6.53s3.88.26,3.88-3.61Zm118,1.35c0-1.78-.37-1.87-2-.5a6.92,6.92,0,0,0-2,2.17c0,.28.9.51,2,.51A2.11,2.11,0,0,0,463.58,657.32Zm-132.94-5.24c-.23-1.86-1-3.39-1.76-3.39s-1.53,1.53-1.77,3.39c-.3,2.42.21,3.4,1.77,3.4s2.06-1,1.76-3.4Zm-6.7-1.53c-.52-4.42-3.24-5.57-4.42-1.86-1,3.29.07,5.45,2.82,5.45C323.75,654.14,324.24,653,323.94,650.55Zm-7.69-.1c.05-.55.35-2.36.66-4,.43-2.31-.07-3-2.11-3s-2.68.9-2.68,4q0,4,2,4c1.1,0,2.05-.45,2.11-1Zm79-1.68c0-.73-.26-1.34-.59-1.34s-1,.61-1.42,1.34-.19,1.34.59,1.34A1.38,1.38,0,0,0,395.22,648.77Zm-85.12-1.31c1-1.6-1.59-6.73-3.38-6.73-.72,0-1.3.87-1.3,1.93a3.73,3.73,0,0,1-1.53,2.88c-1.06.65-1.33-.12-.88-2.48.55-2.86.09-3.52-2.82-4a30.89,30.89,0,0,1-5.66-1.54c-1.61-.69-2.41,0-3.06,2.55-1.08,4.31.12,6.48,3.15,5.69a6.58,6.58,0,0,1,4.8,1.22C302.31,649.06,308.91,649.38,310.1,647.46Zm36.2-1.37c.46-.73.19-1.34-.59-1.34a1.39,1.39,0,0,0-1.42,1.34c0,.74.27,1.34.59,1.34S345.85,646.83,346.3,646.09Zm289.51-4c-.65-1.05-1.42-1.12-2.32-.23a2.49,2.49,0,0,0-.36,2.91c.64,1,1.42,1.13,2.31.24a2.5,2.5,0,0,0,.37-2.92Zm-346.47-2.68c0-4-1.91-5.48-3.09-2.34-.43,1.15-1.26.84-2.68-1-2.27-3-3.13-2.66-3.82,1.34-.33,1.94.37,2.8,2.55,3.11,1.66.24,3,1,3,1.68s.9,1.24,2,1.24q2,0,2-4Zm-13.4-3.27c0-1.8-.56-3.62-1.25-4-1.51-.93-3.28,4.06-2.11,6,1.52,2.46,3.36,1.41,3.36-1.92Zm-5.36,0c0-2-1.83-4.66-2.83-4-2,1.22-1.36,4.61.81,4.61,1.11,0,2-.25,2-.56Zm-6.75-4.47c0-3.49-.14-3.55-2-1.14-1.93,2.56-1.58,4.83.75,4.83.7,0,1.24-1.66,1.22-3.69ZM950.11,634c0-.74-1.21-1.34-2.68-1.34s-2.68.6-2.68,1.34,1.2,1.34,2.68,1.34S950.11,634.77,950.11,634Zm-699-5.81c0-3.49-2.63-3.27-3.13.26-.3,2.17.12,3,1.34,2.57a3.08,3.08,0,0,0,1.79-2.83ZM970.21,630c1.79-1.16,1.79-1.29,0-1.23a16.1,16.1,0,0,0-4.69,1.23c-2.68,1.15-2.68,1.15,0,1.22A9.6,9.6,0,0,0,970.21,630Zm-726.44-3.35c0-1.11-.6-2-1.34-2s-1.34.9-1.34,2,.6,2,1.34,2S243.77,627.76,243.77,626.66Zm718.76-1.26c7.54-1.8,18.16-4.23,23.6-5.42,15.06-3.27,17.2-4.75,18-12.39,5.15-52.64,5.34-72.14.76-81.64-1.82-3.79-2-3.83-11.87-3.35-5.51.26-11.08,1-12.37,1.72-3.54,1.87-40.76,3-41.83,1.23-.49-.79-.22-1.43.59-1.43s1.3-1,1.09-2.34.3-2.22,1.14-2.06c1.73.33,46.35-4.68,51.19-5.74,4.25-.93,1.7-4-4.19-5.09-4.9-.88-52.13-5.6-69.31-6.92-17-1.31-22.85-1.87-29.15-2.79l-5.69-.83.8,4a11.79,11.79,0,0,1-.63,6.68c-1.11,2.08-.67,4.63,2,11.56,3.26,8.45,3.65,8.89,7.83,8.89a53,53,0,0,1,8.58.83c3.3.66,4.19.38,4.19-1.31,0-3.54,5.69-6.18,14.83-6.87,8.85-.67,7.78,0-4.78,3.11-2.61.64-4.16,2-4.42,3.73-.46,3.16,1.19,4.7,7.77,7.21,6.94,2.65,8.38,4,6.55,6.21-1.25,1.51-.11,1.83,6.61,1.83,4.47,0,8.45-.53,8.85-1.17,1.28-2.07-3.79-6.49-8.61-7.5-10.17-2.12-14.13-7.74-6.53-9.26,6-1.19,8.16-1,7.2.5-.45.74-2.3,1.34-4.1,1.34s-3.27.53-3.27,1.18c0,2.18,3.31,3.93,11.39,6,11.55,3,13.28,5.58,12.22,18.26-.46,5.53-1.1,19.4-1.41,30.83S948.05,610,947,615.89s-1.71,11.15-1.35,11.73c.93,1.5,1.76,1.39,16.93-2.22Zm35.21-2.13a12.57,12.57,0,0,0,4.52-3.18c2.6-3.12-1.29-2.88-7.64.48-8.49,4.49-9.61,5.7-4.3,4.66A58.28,58.28,0,0,0,997.74,623.27ZM229,618.87a10.35,10.35,0,0,1,2.63-5.93c3-3.2,9.11-4.19,30.55-4.91,7.56-.25,13.59-1,13.4-1.64-.36-1.25-15.2-1.42-38.85-.44l-14.38.6-1.68,4c-2.71,6.48-.49,11.4,5.14,11.4,2.44,0,3.19-.73,3.19-3.1Zm416.61-3.61a53.05,53.05,0,0,0-1.25-13.19c-2-8.43-2.34-8.62-21-11.62-7.19-1.15-17.79-3.31-23.56-4.78-16.67-4.25-46.12-9.59-84.69-15.34-21.91-3.26-43.06-7-61-10.68-5.53-1.14-13.67-2.65-18.1-3.35s-12.56-2.46-18.09-3.9c-9.84-2.57-41.69-8.49-59-10.95-4.8-.69-11.43-1.84-14.75-2.56-9-2-53.88-9.82-56.85-10-1.82-.08-3,1.25-4,4.58l-1.41,4.69-.47-5.36c-.27-3-1.45-6.44-2.64-7.76s-2.51-4.93-2.92-8c-.51-3.79-1.41-5.65-2.76-5.65s-1.9,1.12-1.68,3.35c.19,1.84.38,5,.43,7s.63,3.68,1.29,3.68c3.11,0,6.63,13.78,3.95,15.43-.87.54-1.8-.26-2.23-1.89-1.15-4.41-2.86-3.32-4.53,2.88-.84,3.14-2.34,7.81-3.33,10.39s-2.17,6.05-2.63,7.71c-1,3.54-7,11-8.87,11a5.72,5.72,0,0,0-2.9,1.39c-.89.76-2.83,2.3-4.3,3.41-2.52,1.91-2.4,2,2,1.17a26.09,26.09,0,0,0,7.66-2.75,12.44,12.44,0,0,1,5.32-1.88c2.15,0,2.13.23-.28,2.57-3.89,3.77-20.63,8.24-34.19,9.12-10.39.67-12.32,1.2-15.77,4.35-4.71,4.31-6.72,10.06-7.25,20.82-.37,7.59-.21,8.07,2.81,8.5,3.53.5,5.46-1.62,5.49-6a10.56,10.56,0,0,1,2.37-5.64c2.18-2.58,4.14-2.81,28.32-3.4,14.28-.35,26.53-1.2,27.21-1.88s1.81-5.26,2.51-10.16,1.83-11.45,2.52-14.53,1.06-6,.81-6.35a35.25,35.25,0,0,1-1.28-5.94c-.63-4-.3-5.59,1.43-6.85,1.49-1.09,2.19-3.35,2.07-6.63-.22-5.69-2.49-5.61,20.51-.71,38,8.11,45.2,9.67,54.95,11.92,5.9,1.37,14.35,3.19,18.77,4.06s12,2.43,16.75,3.45,14.14,2.83,20.78,4,19.6,3.62,28.81,5.42c48.2,9.41,58.83,11.3,63.5,11.3a15.53,15.53,0,0,1,6.08,1.27c3.88,2.08,34.18,8.72,64.45,14.12,28.67,5.12,38.57,7.29,42.22,9.24a20.51,20.51,0,0,0,7.37,2.27,28.37,28.37,0,0,1,8.72,2.62c2.94,1.38,6.86,2.39,8.71,2.24,3-.23,3.4-1,3.8-6.3Zm-13.77-36.85c.77-4.08,1.39-4.7,4.76-4.7,7.26,0,4.45-3.68-4.51-5.93l-8.38-2.09,9,.69,8.95.69.92-7.41a47.18,47.18,0,0,0,.29-10.75c-.58-3-.22-3.34,3.87-3.34,3.11,0,4.5.62,4.5,2,0,1.1.67,2,1.48,2s1.14-.91.72-2,0-2.09.86-2.18c1.66-.18,5.63-.42,14.7-.9,3.13-.17,4.9-.89,4.69-1.9-.39-1.9,8.13-1.55,10.55.44a4.16,4.16,0,0,0,3.71.39c3-1.17,16.9.7,16.9,2.27,0,.74-3.79,1-9.1.66-5-.34-9.9-.13-10.87.47s1.93,1.32,7.43,1.67c11.42.73,15.27.09,14.31-2.4-.5-1.31.34-1.87,2.78-1.87,2.1,0,3.49.75,3.49,1.87s1.9,2,5.28,2.37c6.6.63,8.18.12,7.24-2.32s4-2.6,6.49-.14,13.16,2.81,13.17.55c0-1.13,2.87-1.74,9-1.92,5-.14,13-.67,17.76-1.19,7.95-.86,8.36-1.05,4.69-2.18a32.52,32.52,0,0,0-8.4-1.2,26.15,26.15,0,0,1-8-1.35c-2.27-.87-19.39-1.42-44.88-1.43-23,0-41.55-.57-42-1.24s.5-1.2,2-1.2c4.43,0,3.24-2.09-4.28-7.49l-7-5.05,4-1.09c2.22-.6,9.15-.76,15.42-.37s16.35.88,22.42,1.08c20,.65,13.32,2.19-9.47,2.19-13.64,0-22.33.51-22.33,1.31,0,2.81,6.74,5.5,14.9,6,4.7.26,15.64,1.24,24.31,2.18,12,1.3,16.56,1.34,19.16.16,4.28-2,22-2.08,22-.16,0,1.43,6.85,1.26,8.05-.2.36-.45,3.51-1.24,7-1.75,5.93-.88,6.37-.74,7.14,2.35.72,2.86,1.82,3.4,8.43,4.15,4.17.48,9.25,1.19,11.28,1.59,2.77.54,3.68.19,3.68-1.4,0-1.16-.6-2.11-1.34-2.11s-1.34-1.26-1.34-2.8c0-3.78,2.73-2.67,6,2.45,1.48,2.29,4,4.79,5.66,5.55,3.09,1.46,34.88,1,36.4-.58,1.07-1.06-3.92-4.74-5.29-3.9-.57.35-2.54-1.29-4.39-3.65-3-3.81-4.37-4.4-12.5-5.3-5-.56-12.32-1.05-16.19-1.09-4.36,0-7-.65-7-1.6s2.94-1.29,10.26-.67c5.64.47,13.73.86,18,.86,7.35,0,7.87.23,10.55,4.56,1.54,2.5,4.29,4.92,6.1,5.37a8.34,8.34,0,0,1,4.71,3.49c1.1,2,2.81,2.67,7.41,2.67,3.29,0,6-.46,6-1-.06-3.49-2-7.06-4.15-7.75-3.35-1.06-3.25-3.31.15-3.31,1.47,0,2.68.84,2.68,1.85a5.56,5.56,0,0,0,2,3.52c1.7,1.41,2,1.12,2-1.85,0-1.93.67-3.52,1.49-3.52,1,0,1.19-1.6.63-4.58-.5-2.66-.28-4.95.52-5.44a3.69,3.69,0,0,0,1.38-2.88c0-1.41-1.11-1.89-3.69-1.59-3.82.44-4,1.11-2.49,8.46.76,3.66.61,3.56-1.66-1.08-3.2-6.53-6.25-9.63-5.2-5.28.4,1.66.18,3-.49,3s-1.21-.87-1.21-1.93a3.46,3.46,0,0,0-1.21-2.68c-.66-.41-23.88-1.1-51.6-1.55-55.95-.89-50.67-1.67-51,7.5-.1,3.17-.57,3.38-8.68,3.76-4.78.22-9.2-.22-10-1-1-1-.72-1.41.87-1.41,1.25,0,2.28-.67,2.28-1.5,0-1.11.49-1.1,1.83,0,2.24,1.86,4.21-.1,5.58-5.55.77-3.09.49-3.68-1.76-3.68a4.1,4.1,0,0,0-3.59,2.35c-.83,2.16-1,2.17-2.15.11-1.05-1.86-4-2.27-17.67-2.52-41.31-.75-60.73-.83-61.75-.27-.61.34.25,2.06,1.9,3.82,4.08,4.34,2.57,4-4.83-1-5.93-4-6.26-4.07-8.07-1.67a11,11,0,0,0-1.89,3.16c0,.37,4.66,3.5,10.36,6.95,16.56,10,20.67,14.5,13.3,14.5-2.18,0-2.34.34-1,2s.58,2-6.87,1.93a172.76,172.76,0,0,1-19.6-1.73c-9.93-1.5-11.06-1.45-11.06.47a6.73,6.73,0,0,0,1.68,3.92c2.94,3.12-20,.62-24.15-2.63a13.63,13.63,0,0,0-7.13-2.63,63.6,63.6,0,0,1-10.2-1.37c-3.54-.75-10.36-1.93-15.15-2.62S559,532.69,552,531.56c-18.94-3.06-30.42-4.75-40.88-6-12-1.44-73.82-10.34-84.44-12.15-29.41-5-47.93-7-50.84-5.4-4,2.13-14.2-.45-15.08-3.82-.47-1.82-3.06-2.67-11.57-3.84-11.2-1.54-26-3.81-28.39-4.36-3.21-.74-4.43.27-5,4.15-.34,2.35,0,4.34.85,4.58s3.18.81,5.27,1.27c2.47.55,3.57,1.48,3.11,2.66s.48,2.14,2.23,2.61c4.91,1.32,6.24,1,5.33-1.4-.72-1.89-.15-2.1,3.73-1.44,2.52.43,9.1,1.48,14.63,2.33,12.92,2,16.86,3.1,16.32,4.66s3.34,3.15,8.06,3.28c2,.05,4,.77,4.54,1.6.65,1.05-.44,1.29-3.6.78-8.84-1.41-23.39-3.45-30-4.21-3.68-.42-9.71-1.15-13.4-1.62-12.65-1.59-5.25.75,9.44,3,8.07,1.24,15.59,2.75,16.7,3.37,3.75,2.1-7.1,1.28-26.91-2-10.63-1.77-23.26-3.67-28.05-4.21-11.27-1.28-13.19-1.56-18.43-2.68-4-.87-4.35-.68-4.35,2.54,0,4.62,2.07,5.53,20.15,8.86,8.45,1.55,18.38,3.47,22.07,4.25,22.48,4.81,25.3,5.33,53.61,9.94,6.63,1.08,14.78,2.54,18.09,3.23,18.82,3.95,31.06,5.72,32.07,4.63.61-.67,1.52-3.47,2-6.24l.89-5h-5.37c-2.95,0-11.27-1.48-18.49-3.28a171.74,171.74,0,0,0-21.83-4c-11-.91-21.67-3.33-20.81-4.73s11.11-.34,20.81,2a142.22,142.22,0,0,0,15.41,2.62c4.43.46,9.4,1.12,11.06,1.46s3,0,3-.69-3-1.72-6.7-2.21-6.71-1.49-6.71-2.22,1.52-.93,3.69-.38a78.43,78.43,0,0,0,10.29,1.47c6.31.5,12.23,3.26,7,3.26-1.3,0-2,.61-1.53,1.34s2.37,1.34,4.26,1.34c3,0,3.19-.29,1.72-2.06s-.82-2,6.18-1.3c8.23.8,13.47,3.36,6.87,3.36-5.33,0-4.4,2.23,1.41,3.38l5,1-3.71,1.58c-2,.87-3.25,2.05-2.68,2.63s1,3.25,1,5.94c0,4.67.24,4.92,5.36,5.71,5.67.87,47.61,8.27,79.08,14,10.32,1.87,25.1,4.3,32.84,5.41s25.53,4.07,39.54,6.58,27,4.82,28.81,5.14l4.3.76c.52.1,1.34-1.93,1.82-4.51Zm-13.06-12.09c-.77-.77-15.58-3.2-24.55-4-3.69-.34-13-1.8-20.78-3.24s-20.1-3.62-27.47-4.84-17.45-3.06-22.38-4.09a99,99,0,0,0-13.41-2c-5.34-.13-14.16-3.13-12.39-4.22.7-.43,6.39.1,12.66,1.17s15.31,2.49,20.1,3.15,20.78,3.34,35.52,6,32.54,5.74,39.54,6.93c13.35,2.27,17.35,3.59,15.1,5-.73.45-1.6.54-1.94.2Zm4.26-6.68c-4.15-1.6-4.3-1.81-1.34-1.89,4.85-.12,9.47,1.34,8.62,2.71S628.88,561.88,623.07,559.64Zm11.09,1.08a7.74,7.74,0,0,1,4,0c.91.37-.16.65-2.37.62s-3-.33-1.65-.67Zm-25.83-3.09a14.57,14.57,0,0,0-6.29-1.32c-2.35,0-4.63-.6-5.07-1.3s1.95-1,6.29-.59c10.39,1,13.32,1.79,12.42,3.25-1,1.66-4.75,1.64-7.35,0Zm29.29-.64c-.36-.36-3.62-.93-7.26-1.28-11.2-1.05-29.94-4.2-30.92-5.19-1.3-1.29,4.32-1.16,13,.29,4,.67,12,2,17.67,2.87s10.39,2.17,10.39,2.8c0,1.24-1.83,1.56-2.88.51Zm-53.41-3.55c-4.8-.65-10.07-1.49-11.73-1.87-3.18-.73-4.21-3.3-1.34-3.34,3.69-.05,22.45,4.68,22.45,5.67,0,.58-.15,1-.34.89s-4.25-.7-9-1.35ZM580.52,548c-4.61-.71-8.38-1.84-8.38-2.51a1.11,1.11,0,0,1,1-1.2c2.74.07,23.67,4.11,24.25,4.68,1,1-7.33.5-16.88-1Zm-31.16-1.05c-1.64-1.06-1.46-1.3.92-1.32,1.62,0,3.31.58,3.77,1.32,1.05,1.71-2,1.71-4.69,0Zm7.79.42a2.7,2.7,0,0,1,2.57.11c.44.44-.35.76-1.76.7C556.4,548.08,556.08,547.76,557.15,547.33Zm-16.5-1.76c-.46-.74.11-1.34,1.26-1.34s2.09.6,2.09,1.34a1.31,1.31,0,0,1-1.27,1.34A2.85,2.85,0,0,1,540.65,545.57Zm24.3.4c-.35-.35-3.86-1.48-7.78-2.5L550,541.62l9.38.71c9.63.72,13.64,2.34,8.88,3.58-1.48.39-3,.42-3.34.06Zm-32.68-1.29a2.74,2.74,0,0,1-1.68-2.27c0-.88-2.86-2.28-6.36-3.12-5.23-1.26-6.64-1.19-7.86.36a4.92,4.92,0,0,1-3.18,1.9c-1.3,0-1.33-.44-.12-1.89,2.12-2.56,1.25-2.9-12.3-4.79C494.32,534,489,532.68,489,532s1.36-1,3-.63,7.84,1.29,13.74,2.13c23.23,3.31,35.52,5.74,35.52,7,0,.79-1.69,1-4,.55-4.72-1-5.32.77-1,2.85,2.78,1.34,2.81,1.46.33,1.44a14.62,14.62,0,0,1-4.35-.69Zm-51.62-1.74c-2.77-.54-5.48-1.45-6-2-1.4-1.5,16.16.56,17.71,2.07s-4.09,1.43-11.68,0ZM505,540.1c-1.38-.87-.89-1.2,1.79-1.21,4,0,4.73.63,1.89,1.72a4.68,4.68,0,0,1-3.68-.51Zm40,.56a5.19,5.19,0,0,1,3.35,0c.92.37.17.68-1.67.68S544.08,541,545,540.66ZM457.65,539c-2.32-.91-2.35-1.11-.34-1.88,2.58-1,6.27.12,6.27,1.88,0,1.41-2.33,1.41-5.94,0Zm8.94.27a11.28,11.28,0,0,1,4.7,0c1.29.34.23.62-2.35.62S465.3,539.62,466.59,539.28Zm23.79-1.75L487,536.45l3.35-.11a11.05,11.05,0,0,1,5.37,1.19c1.78,1.15,1.78,1.28,0,1.18a27.78,27.78,0,0,1-5.37-1.18Zm-44.23-1.34c0-1.59,2.33-1.59,6,0,2.24,1,2,1.16-1.68,1.24-2.4.05-4.36-.51-4.36-1.24Zm30.43.49c-.46-.47-3.73-1.06-7.26-1.33-9-.68-13.05-1.78-11.63-3.16.68-.67,4.08-.62,7.9.12s8.67,1.47,11.08,1.68c5.58.47,9.17,3.54,4.15,3.54-1.86,0-3.77-.38-4.24-.85Zm-29.09-5.62c0-.61,1.81-.85,4-.52s4,.82,4,1.11-1.81.52-4,.52S447.49,531.67,447.49,531.06Zm21.63-.34c-4.7-.61-8.87-1.44-9.28-1.84q-3-3,12.06-.68C491.72,531.28,489.43,533.35,469.12,530.72ZM448,526.51c-.35-.57,1.17-1,3.38-1s4.4.62,4.86,1.37-.77,1.25-3.37,1C450.53,527.7,448.34,527.09,448,526.51Zm327.89-1c-3-1-2.78-1.08,1.75-1.2,3.09-.08,4.78.39,4.28,1.2C781,527,780.57,527,775.87,525.46Zm-338-.91a2.71,2.71,0,0,1,2.57.1c.45.45-.35.77-1.76.71C437.11,525.29,436.79,525,437.86,524.55Zm327.62,0a10.91,10.91,0,0,1,4.69,0c1.29.34.24.61-2.34.61S764.19,524.88,765.48,524.54Zm24.13,0a10.91,10.91,0,0,1,4.69,0c1.29.34.23.61-2.35.61S788.32,524.88,789.61,524.54Zm-364.9-1.78c0-.81,1.5-1,3.69-.49,5.26,1.27,5.43,1.85.55,1.85C426.62,524.12,424.71,523.51,424.71,522.76Zm299.25.43a7.74,7.74,0,0,1,4,0c.91.37-.16.65-2.37.62s-3-.33-1.65-.67ZM404.61,520c0-.78.6-1,1.34-.59s1.34,1.1,1.34,1.42-.61.59-1.34.59A1.38,1.38,0,0,1,404.61,520ZM224,580.87a5.19,5.19,0,0,0-3.35,0c-.92.37-.17.67,1.67.67S224.92,581.24,224,580.87Zm427.36-4.25c.5-2.45,1.32-8.88,1.83-14.28.87-9.31.76-9.87-2-10.75-1.61-.51-3.43-.42-4.05.21s-1.44,6.13-1.82,12.23c-.77,12.41-1.22,13.7-4.82,13.7-1.39,0-2.87.56-3.29,1.25-.9,1.45,3.57,2.55,9.27,2.29,3.38-.16,4.11-.86,4.88-4.65Zm-370.73-15c.45-.74.19-1.34-.59-1.34a1.38,1.38,0,0,0-1.42,1.34c0,.74.26,1.34.59,1.34S280.17,562.39,280.63,561.65Zm380.68-13.34a2.35,2.35,0,0,0-2.76-.53c-2.77,1.06-2.45,1.81.79,1.81,1.52,0,2.4-.58,2-1.28ZM678,548c0-.58-1.51-1.05-3.35-1.05s-3.36.59-3.36,1.32,1.51,1.2,3.36,1S678,548.53,678,548Zm-240.5-6.08c-.19-1.29-1-2.28-1.89-2.21-3.55.31-4.23.6-4.23,1.83,0,.72.91,1,2,.53,1.29-.49,2,0,2,1.46,0,1.23.55,1.9,1.22,1.48s1.07-1.81.88-3.09Zm420.28,2.49c-1.66-1-6.89-.54-6.89.68,0,.29,2,.51,4.36.5C858.24,545.53,859.05,545.16,857.81,544.37Zm47.4-7.52c0-3.84-.24-4-5.29-3.69-6.58.4-8.17,1.86-6.14,5.64,1.23,2.31,2.55,2.81,6.49,2.49,4.5-.38,4.94-.77,4.94-4.44Zm12,3.41c1.26-2-5.83-6.11-7.58-4.36-2.27,2.26-.18,5.65,3.48,5.65C915,541.55,916.8,541,917.23,540.26Zm-33.76-6.81a6.73,6.73,0,0,0-1.88-3.4c-.65-.4-1.18-2-1.19-3.66,0-2.83-5.65-6.88-7.29-5.24s-.68,10.75,1.27,11.5c1.11.42,2,2.25,2,4.06,0,3.18.13,3.23,3.89,1.35,2.87-1.43,3.7-2.63,3.19-4.61Zm-9.76-4.64a2,2,0,1,1,2,2A2,2,0,0,1,873.71,528.81ZM605.65,535c0-1.17-10.94-8.17-12.78-8.17-.75,0,11.34,9,12.44,9.3.19,0,.34-.46.34-1.13Zm17-4.48c2-3.13,7.21-10.41,11.53-16.16s8.58-11.79,9.46-13.41c5.81-10.62,10.62-18.35,12.3-19.74a5.19,5.19,0,0,0,1.94-2.86c0-.69,2.6-5.29,5.78-10.23s9.61-15.31,14.3-23,9.55-15.27,10.82-16.75c3.66-4.27,6.75-11.16,5.37-12s-29.87-3.29-31.07-2.6c-.46.27-9.81-.39-20.78-1.47s-25.36-2.22-32-2.56-19.3-1.21-28.15-1.95-27.53-1.72-41.52-2.16-26.65-1.07-28.14-1.4c-2.58-.56-11.9-1-57.76-2.76l-20.19-.77-5.4,7.14c-9.83,13-22.5,30.64-27.26,37.9-2.58,3.94-8.61,12.68-13.4,19.43S379,478.94,377.93,480.9a35.12,35.12,0,0,1-4.36,6.22c-3,3.21-3.15,4.84-.5,4.84,1.09,0,2.9-1.78,4-3.94,1.66-3.23,3.18-4.11,8.39-4.89,6.63-1,31.33,1,52,4.16,13.9,2.14,40.54,5.58,52.27,6.74,4.43.45,11.36,1.34,15.42,2s13.4,1.82,20.77,2.57,20.34,2.32,28.82,3.47,17.52,2.34,20.1,2.63c20.36,2.26,38.27,5.12,40.39,6.44,3.65,2.28,4.38,5.93,1.94,9.65a12.87,12.87,0,0,0-2.12,5.3c0,1.13-1.23,3.28-2.73,4.78-3.37,3.38-2.36,5.31,2.79,5.31,3.15,0,4.65-1.12,7.6-5.69Zm-1.63-28c-8.59-1.9-10-2.14-23.45-3.88-7-.91-13.2-2.08-13.77-2.6s.14-2,1.57-3.29c2.5-2.26,2.78-2.25,6.4.29s13.88,5,13.8,3.19c0-.51-3.92-2.81-8.66-5.11-8.38-4.07-8.68-4.11-10.89-1.67-2.68,2.95-6.17,3.2-10.28.71a10.15,10.15,0,0,0-7-.94l-4,.86,5,1.88c2.76,1,5,2.36,5,2.94,0,1.39.26,1.41-15.41-1-7.37-1.13-23.36-3-35.52-4.06s-23.92-2.3-26.13-2.66-13.68-1.57-25.47-2.68c-28.07-2.65-27.91-2.61-27.14-6.67.35-1.84-.17-3.95-1.19-4.79-1.41-1.17-1.83-1-1.83.66,0,2.5-2.2,2.94-3,.59a1.35,1.35,0,0,0-2.12-.59c-2.49,1.54-1.88,3.51,1.08,3.51,1.51,0,2.68.9,2.68,2,0,1.4-.94,1.84-3,1.42A207.68,207.68,0,0,0,413,477.78c-8.35-.55-18.94-2.92-14.1-3.16,2.45-.13,2-2.34-.62-3.36-1.51-.58-3.09.16-4.66,2.2-2.65,3.45-3.27,1.16-.9-3.37,2.52-4.82,19-29.48,22.13-33.09,1.59-1.84,5.76-7.57,9.26-12.73,12.75-18.76,10.49-17.13,22.7-16.32,5.9.39,12.54,1,14.75,1.39s15.78,1.34,30.15,2.16,29.16,2,32.84,2.62,8.21,1.18,10.05,1.24c10.4.32,57.15,3.14,83.77,5.06,17,1.22,32.52,2.15,34.58,2.08,2.4-.09,4,.68,4.59,2.15,1.67,4.53,5.1,5.53,6.08,1.77.56-2.11,2-2.55,8.41-2.63,4.25-.05,8.25.22,8.87.6,1.57,1-2.41,8.27-5.61,10.27a5.92,5.92,0,0,0-2.64,4.38,12.27,12.27,0,0,1-2.14,5.78c-2,2.83-2.26,2.89-3.81.77-2.28-3.12-4.05-.16-1.93,3.23,1.62,2.59,1.44,2.94-11.18,22.76-1.27,2-3.58,6-5.15,8.84a59.1,59.1,0,0,1-4.11,6.7c-.7.82-3.41,4.95-6,9.19-5.15,8.37-6,8.7-17.27,6.21Zm-3.35-9.89a2.11,2.11,0,0,0-2.17-2c-1.78,0-1.87.37-.51,2a7.16,7.16,0,0,0,2.18,2c.27,0,.5-.91.5-2ZM625,492c4.34-1.65,4.41-3.56.15-4.37-3.47-.66-6.1,1-6.1,3.93,0,2.09,1.35,2.18,6,.44Zm18.14-8c0-1.71-.35-1.66-1.83.29-1,1.29-2.16,2.34-2.64,2.34s-.86-1-.87-2.34c0-2-.21-2.05-1.32-.34a9.73,9.73,0,0,0-1.32,4.44c0,2.32.14,2.32,4,0,2.21-1.3,4-3.3,4-4.43Zm-85.74,3.3c1.91-2.3,2.06-2.18-3.69-2.67-2.86-.24-4.35.23-4.35,1.38C549.36,489.31,555,490.21,557.4,487.26Zm-34.26-6.92c-3.7-2.71-6.69-1.64-6.25,2.23.53,4.67,3.15,5.69,6.19,2.43,2.56-2.75,2.56-2.84.06-4.66Zm18.18,4.24c0-1.84-.2-3.35-.44-3.35s-3.4,1-7,2.34l-6.61,2.34,6,.81c3.32.45,6.49.9,7,1s1-1.3,1-3.15Zm68.91,2.54c5.79-2.22-.54-5.18-8.06-3.76-4.93.92-4.93.93-1.74,2.7C604,488,607,488.35,610.23,487.12Zm-95.05-1.87c.46-.73.19-1.34-.59-1.34a1.39,1.39,0,0,0-1.42,1.34c0,.74.27,1.34.59,1.34S514.72,486,515.18,485.25Zm49.16-2.2a7.34,7.34,0,0,1-.58-4.69c.36-1.37,0-2.49-.84-2.49s-1.5,2.11-1.5,4.69c0,3.35.6,4.69,2.08,4.69s1.75-.57.84-2.2Zm15.94-.85c-.16-1.6-2-1.29-2.58.44-.29.88.19,1.37,1.08,1.07s1.56-1,1.5-1.51Zm40.94-4.61c-.74-.74-6.19,2.67-6.19,3.87,0,.5,1.06,1.13,2.35,1.39,2.14.44,5.26-3.84,3.84-5.26Zm-147.69,1.66c-3.92-3-5.72-2.33-2,.72,1.76,1.47,3.52,2.35,3.92,1.95S475,480.33,473.53,479.25Zm14.17,2.14c0-.65-1.35-1.55-3-2-4.47-1.2-5-1-4.17,1.16s7.18,2.86,7.18.83Zm113.12-2.86c.68-.67,0-.85-1.68-.42-2.27.6-2.87.16-2.87-2.08,0-1.56-.61-2.84-1.34-2.84s-1.34.86-1.34,1.9a14.32,14.32,0,0,1-.89,4.22c-.77,2-.34,2.19,3,1.36a14.56,14.56,0,0,0,5.11-2.14Zm42.34,1A8.15,8.15,0,0,0,642,476c-.94-1.49-1.47-1.31-2.66.91-2,3.8-1.89,4.29,1.2,4.29C642,481.23,643.17,480.48,643.16,479.56Zm-69.3-2.4c-.4-1.51-1-2.44-1.38-2.07-.73.73.55,4.8,1.51,4.8.32,0,.26-1.23-.13-2.73Zm-116.3-4c1.94-2.18,2.2-3.16,1-3.6-.93-.32-2.63-2.39-3.77-4.59-1.71-3.31-2.4-3.71-4.05-2.34-1.44,1.19-1.56,1.92-.44,2.61.89.55,1.16,2.15.64,3.8-1,3.12.51,3.76,3,1.26.87-.87,2-1.18,2.48-.68s-.7,2.39-2.65,4.2-3.56,3.66-3.56,4.09c0,1.34,4.6-1.61,7.38-4.75Zm5.77,2.84c.33-1-.17-1.51-1.18-1.18a4.19,4.19,0,0,0-2.34,2.35c-.34,1,.17,1.51,1.17,1.17a4.22,4.22,0,0,0,2.35-2.34Zm72,1.25c.45-.74-.87-2-2.94-2.92-3.6-1.51-3.63-1.6-.75-2.1,3.81-.66,3.75-1.75-.25-4.66-2.45-1.78-3.46-1.93-4.46-.67-1.67,2.13-3.11,9.79-2,10.86,1.35,1.35,9.53.95,10.44-.51Zm-107.06-2.95c.45-.73-.54-1.1-2.26-.85s-3.29,1.16-3.58,2C421.78,477.29,427,476.24,428.23,474.26Zm60.9,1.56c4.2-2.24,3-4-2.77-4s-6.92,1.64-3,3.91c2.94,1.72,2.7,1.72,5.78.06Zm99.66.58a3.31,3.31,0,0,0,2.12-2.68c0-1.35-1.87-1.87-6.7-1.87s-6.71.51-6.71,1.92c0,1.68,2.21,2.63,7.6,3.26A9.57,9.57,0,0,0,588.79,476.4Zm20.88-.53c1.64-1.05,1.46-1.3-.93-1.32-1.61,0-3.3.58-3.76,1.32C603.93,477.58,607,477.58,609.67,475.87Zm25.39-4.79c-2.4-2.89-2.91-1.51-1.09,2.93,1.27,3.09,1.7,3.38,2.16,1.46a5.76,5.76,0,0,0-1.07-4.39Zm-6.62,2.78c0-1.1-.61-2-1.35-2s-1.34.91-1.34,2,.61,2,1.34,2S628.44,475,628.44,473.86ZM548,471c0-1.34-.75-1.79-2.11-1.27a7.49,7.49,0,0,1-5-.6c-2-1-1.75-.42,1,1.94,4.11,3.48,6.11,3.46,6.11-.07Zm18.76-.77c0-1.27-3.83-1.17-7.31.19-2.56,1-2.56,1.06-.09,2.45s7.4-.31,7.4-2.64Zm56.36-1.86c1.14-1,4.46-2.27,7.36-2.87,6.8-1.41,9.47-5.87,6.35-10.63s-5.78-5.7-20.06-6.56c-7.23-.44-15.26-1.06-17.84-1.39-7.11-.91-30.12-2.85-42.6-3.6-10.28-.62-11.39-.43-14.94,2.56-2.11,1.77-4.8,3.23-6,3.23-3.41,0-2.59,5.62,1.53,10.48,3.95,4.67,5.16,4.88,43.22,7.7,4.8.36,15.35,1.44,23.46,2.4,15.09,1.8,15.91,1.74,19.5-1.32Zm-189.26.15c1.58-1.57-3.21-3.39-7.06-2.68-4.74.87-5.35,1.38-4.08,3.43C423.69,470.77,432.16,470.21,433.88,468.48Zm210.82-2.87c-1.26-2.17-1.45-2-1.48,1.48,0,2.89.36,3.56,1.44,2.48s1.07-2.18,0-4Zm-198.55,2.22c0-.74-.86-1.34-1.93-1.34a3.55,3.55,0,0,0-2.76,1.34c-.45.74.42,1.34,1.94,1.34s2.75-.6,2.75-1.34ZM654.27,466c1-1.4.27-8.67-1-9.9-.32-.32-1.24-.16-2.07.35-1.06.66-1.08,1.42-.06,2.65,1.7,2.05-.17,8.05-2.89,9.28-1,.44-.25.42,1.59,0s3.82-1.51,4.39-2.33ZM482.08,462.6c1-2.91-4.84-1.4-6.94,1.81L473,467.69l4.3-1.81c2.36-1,4.51-2.47,4.79-3.28Zm44.44,1.74c1.71-1.63,1.6-1.87-.89-1.87-4.32,0-7.1,1.4-7.1,3.58s4.86,1.27,8-1.71ZM506,463.56c-.42-1.07-.74-.75-.81.81-.05,1.41.26,2.2.71,1.76A2.71,2.71,0,0,0,506,463.56Zm-61.23-3.77a1.34,1.34,0,1,0-1.34,1.34A1.34,1.34,0,0,0,444.81,459.79Zm77.74-1.34c1.34-.87,1.45-1.31.34-1.32a1.91,1.91,0,0,1-1.68-2q0-2.81,3.69-1.72c.55.16.83,1.22.62,2.35s.77.61,2.31-1.3c4.51-5.6,3.2-10.73-2.74-10.73-2.48,0-3.88-.69-3.88-1.93,0-2.67-2.61-4-4.36-2.28-1,1-.81,1.69.79,2.3,2.78,1.07,2.87,3.73.21,5.95-1.8,1.49-1.76,1.88.33,3.43,2.25,1.67,2.25,1.87,0,4.13-1.9,1.93-2.38,2-2.51.42a15.09,15.09,0,0,1,0-3.07c.1-.61-.43-.72-1.19-.25-2.13,1.31-1.62,4.43,1,5.94,3,1.72,4.5,1.74,7,.11ZM520.44,447c2.76-2.09,4.3-1.76,2.84.61a4,4,0,0,1-3.15,1.38c-2,0-2-.28.31-2Zm4.79.7a1.34,1.34,0,1,1,1.34,1.34A1.36,1.36,0,0,1,525.23,447.73Zm-26.16,7.91c3.7-1.54,7.87-4.33,9.27-6.21,2.36-3.16,2.39-3.66.43-6.91-2.08-3.43-2.53-3.53-20.64-4.42-10.19-.5-24.55-1.48-31.92-2.17-13-1.23-13.63-1.16-20.11,2.14a63.59,63.59,0,0,0-9,5.4c-2.73,2.31-3.1,7.36-.67,9.27.92.73,8.61,1.78,17.08,2.34s19.94,1.44,25.47,2c18.33,1.74,23.11,1.52,30.13-1.41ZM417.42,455c2.38-1.94,2.39-2.06.14-1.34a19.9,19.9,0,0,1-5,.78c-1.42,0-2.57.6-2.57,1.34,0,2.06,4.54,1.59,7.45-.78Zm235.7-8.13c.46-1.21.57-2.47.23-2.81-1.06-1.07-3.47,1.07-3.47,3.08,0,2.63,2.2,2.45,3.24-.27Zm-9.88-3.16c.71,0,1.28.94,1.28,2.09s.6,1.72,1.34,1.27c2.51-1.56,1.5-6-1.36-6-4.35,0-8,2.82-6.19,4.78,1.2,1.3,1.75,1.25,2.59-.22a3.54,3.54,0,0,1,2.35-1.88ZM535.1,437.14c.34-7.36-1-8.79-3.36-3.6-1.11,2.45-1,4.22.33,7.3,1,2.23,2,3.85,2.26,3.6s.6-3.54.77-7.3Zm87.25,6.66a1.59,1.59,0,0,0-.66-2.13c-2-1.23-5.67.38-4.65,2s4.28,1.76,5.31.11Zm-10.27-1.7c2.52-2.52,1.91-3.76-1.83-3.76-4,0-8.62,2.19-8.62,4.07s8.54,1.6,10.45-.31Zm46.72-.46c1.25-3.25-.49-3.84-2.16-.73-1,1.94-1,2.79-.06,2.79.78,0,1.78-.93,2.22-2.06Zm-84-1.29c0-1.1-.56-2-1.26-2-1.69,0-2.9,2.1-1.83,3.17C573.24,443,574.82,442.43,574.82,440.35Zm12.69.74c.8-1.29-3.26-4.09-5.94-4.09-1.06,0-1.08.76-.05,2.68,1.51,2.82,4.66,3.56,6,1.41Zm-46.21-7.77c0-1.66-.55-3-1.25-3-2.15,0-3,2.68-2.12,6.37.7,2.79,1.15,3.13,2.12,1.6a11.28,11.28,0,0,0,1.25-4.95Zm54.23,3.21a5.48,5.48,0,0,1,1.41-5.37c2.58-2.57.84-3-2.34-.52-2.29,1.75-1.87,9,.51,9,.66,0,.85-1.42.42-3.15Zm42.16-.35c-1.66-2-5.23-2.54-5.23-.79,0,2,3,4.08,4.88,3.36,1.45-.55,1.53-1.15.35-2.57Zm-83.13.95c1.36-.86.71-1.43-2.44-2.12-4.62-1-6.24-.38-4.83,1.9,1.07,1.73,4.72,1.83,7.27.22Zm103.11-1.8c.59-3.11-1.41-3-5.3.36l-3.16,2.71,4-.36c2.57-.24,4.17-1.21,4.45-2.71Zm-46-1.12c0-1.11-1-1.72-2.49-1.47s-3.7-.86-5.16-2.43c-3.33-3.57-4.34-2.78-2.27,1.76s9.92,6.31,9.92,2.14Zm-182.92-.59c2.59-3.12.74-3.71-2-.65-1.34,1.48-1.81,2.69-1.05,2.69a5.45,5.45,0,0,0,3.08-2Zm77.71.75c0-1.75-4.54-4.07-8-4.07-2.65,0-3.74,2.6-1.87,4.47,1.39,1.39,9.83,1.05,9.83-.4Zm-17.55-3.55c-1.95-2.35-3.19-1.43-2.06,1.52.45,1.18,1.46,1.76,2.24,1.28,1-.6.91-1.48-.18-2.8Zm100.24,2.44a1.94,1.94,0,0,0,.49-2.83c-1.33-2.14-4.1-.81-4.1,2C585.55,434.53,586.72,434.81,589.16,433.26Zm62-.28c2.94,0,3.9-.72,4.4-3.35.81-4.22-2.8-4.6-6.36-.67-1.33,1.48-3.24,2.68-4.23,2.68a1.67,1.67,0,0,0-1.8,1.49c0,.81,1,1.11,2.12.67A20.42,20.42,0,0,1,651.17,433Zm22.84.08a2.91,2.91,0,0,0-1.34-2.09c-.74-.45-1.35.11-1.35,1.26s.61,2.09,1.35,2.09A1.31,1.31,0,0,0,674,433.06ZM470.28,431.5c0-.84-1-1.11-2.24-.63a2.72,2.72,0,0,1-3.2-.69,1.79,1.79,0,0,0-2.45-.64c-2.93,1.81-1.41,3.44,3.2,3.44,2.58,0,4.69-.67,4.69-1.48Zm92.15.64c1.65-.45,3-1.25,3-1.78,0-2-6.07-3.7-9.16-2.56-2.29.85-3,.71-2.57-.52.3-.92,2.16-1.86,4.13-2.09,3.88-.46,4.78-2.56,1.6-3.77-2.26-.87-9.9,4.66-10,7.25C549.3,431.76,556.59,433.7,562.43,432.14Zm-104.21-2.51c0-1.1-.61-2-1.34-2s-1.34.91-1.34,2,.6,2,1.34,2S458.22,430.74,458.22,429.63Zm22.4-1.83a8.58,8.58,0,0,1-3.27-2.55c-1.46-1.84-1.72-1.83-2.49.15a6.84,6.84,0,0,0-.11,4.14c.6,1.56,1.37,1.63,4.12.34,1.86-.88,2.65-1.81,1.75-2.08Zm46.51,1.14c1.9-1.9-5.11-4-10.52-3.09-5.15.84-5.72,1.62-3.11,4.28C515.32,432,524.92,431.14,527.13,428.94ZM621.47,430a7.86,7.86,0,0,0,1.6-4.82c0-3-.39-3.18-6-2.62s-11,3.26-9.43,4.81a9.41,9.41,0,0,0,3.69,1.19,9.1,9.1,0,0,1,4.26,1.75c1.75,1.75,3.91,1.64,5.86-.31Zm-192.74-3.91c0-.73-.6-1-1.34-.51a2.93,2.93,0,0,0-1.34,2.17c0,.74.6,1,1.34.51A2.91,2.91,0,0,0,428.73,426.12ZM536,427.62a1.34,1.34,0,1,0-1.34,1.34A1.34,1.34,0,0,0,536,427.62Zm108.14-.47c2-2-4.28-2.35-8.06-.38l-4.24,2.2,5.75-.51c3.16-.27,6.11-.86,6.55-1.31Zm-187.21-3.63a1.31,1.31,0,0,0-1.34-1.26c-.74,0-1.34.94-1.34,2.09s.6,1.72,1.34,1.26A2.91,2.91,0,0,0,456.88,423.52Zm35.82,2a2.71,2.71,0,0,0-2.57-.1c-1.07.42-.75.74.81.8S493.15,425.92,492.7,425.47Zm52.64-1.2c0-1.11-.61-2-1.34-2s-1.34.9-1.34,2,.6,2,1.34,2S545.34,425.38,545.34,424.27Zm36.67,0c.42-1.11.19-2-.53-2s-1.3.9-1.3,2,.24,2,.53,2S581.58,425.38,582,424.27Zm12.24.67c3.59-1.36,3.55-4.41,0-3.29l-4.06,1.27c-1.15.36-1.72,1.27-1.26,2,1,1.66,1,1.66,5.36,0ZM513.5,420.6c3.51-1.55,6.37-3.38,6.37-4.07s-1-.84-2.34-.33a42.63,42.63,0,0,1-7,1.66c-4.1.63-13.4,5.1-13.4,6.44s10.73-1.19,16.41-3.7Zm15,.69c.55-1.43.15-1.77-1.36-1.19a13.7,13.7,0,0,1-4,.82c-3.29,0-2.05,2,1.37,2.2,1.8.1,3.6-.71,4-1.83Zm-43.21-4.65c-.86-.86-1.63-.81-2.22.14s-.26,1.46.52,1.46,1.49,1.05,1.58,2.34c.14,2.09.22,2.08.79-.14a4.41,4.41,0,0,0-.67-3.8Zm7.77,1c0-.33-.61-1-1.35-1.42s-1.34-.19-1.34.59a1.39,1.39,0,0,0,1.34,1.42C492.46,418.24,493.07,418,493.07,417.65Zm-53.62-4.85c0-.7-.9-1.26-2-1.26-2.07,0-2.66,1.58-1.15,3.09C437.36,415.7,439.45,414.49,439.45,412.8Zm136.71,81.84c0-1.68,1.43-1.68,4,0,1.63,1.05,1.44,1.3-1,1.32-1.66,0-3-.59-3-1.32Zm59.56,38.72c-.94-1.51-4.6-1.58-4.6-.08,0,1.89,1.5,2.76,3.47,2,1-.39,1.54-1.26,1.13-1.92ZM871,534.84a1.34,1.34,0,1,0-1.34,1.35A1.35,1.35,0,0,0,871,534.84Zm17.42-.67c0-1.1-.58-2-1.3-2s-.95.91-.52,2,1,2,1.3,2S888.45,535.28,888.45,534.17ZM608.33,530.9c0-1.58-2.61-3.27-3.57-2.31s.73,3.57,2.31,3.57A1.26,1.26,0,0,0,608.33,530.9Zm50.93.74c0-.29-2.07-.76-4.6-1.06s-4.3-.06-3.94.52C651.37,532.15,659.26,532.65,659.26,531.64Zm-8-5.54c0-1.12-1.51-2.62-3.35-3.32s-3.35-1.89-3.35-2.65c0-2.59-3.71-1.37-5.88,1.93a18.1,18.1,0,0,0-2.16,4c0,.35,2.56.87,5.69,1.15s6.45.62,7.37.75S651.22,527.22,651.22,526.1Zm-72.31-4.55-4.62-2.46,6.63-.79c3.65-.43,10.41-1.17,15-1.64,9.72-1,10.83-2.53,2.68-3.74-3.13-.46-12-1.86-19.77-3.1-15.21-2.45-19.45-2.58-38.84-1.26-7.73.52-13.4,1.56-14.49,2.65-1.29,1.28-3.34,1.49-7.4.73-9.4-1.75-28.26-3.91-33.16-3.79l-4.62.12,4,1.25c2.21.69,11.26,2.14,20.11,3.22s18,2.31,20.44,2.72c3.35.57,4.35.27,4.35-1.33a2,2,0,0,1,2-2.07c1.11,0,2,.6,2,1.34a1.46,1.46,0,0,1-1.56,1.34c-.86,0-1.26.3-.89.68s9.37,1.94,20,3.5,21.73,3.28,24.68,3.85c8.13,1.54,8.42,1.44,3.42-1.22Zm-13.43-2.74c-1.08-.68-1.61-1.61-1.16-2,1.24-1.24,7.91.78,7.06,2.14C570.44,520.44,568,520.4,565.48,518.81Zm-17.8-2.37c-2.76-.28-5-1.12-5-1.86,0-1.35,6.72-.74,16.1,1.47l4.67,1.1-5.36-.09c-3,0-7.62-.33-10.39-.62Zm398.41,6.34a1.34,1.34,0,1,0-1.34,1.34A1.35,1.35,0,0,0,946.09,522.78Zm-332.4-2.15c0-1.35-1.86-1.87-6.7-1.87-7,0-9.32,2.2-3,2.93C612.12,522.63,613.69,522.45,613.69,520.63ZM880,516.43c-2.07-2.06-2.27-2.07-2.27-.08a3.06,3.06,0,0,0,1.68,2.79c2.73,1,3-.29.59-2.71Zm117.23,2.33c4.85,0,5.13-.2,3.79-2.71s-1.69-2.55-4.36-.67a14.86,14.86,0,0,1-7.23,2c-2.38,0-4.75.7-5.27,1.55-.69,1.11.28,1.3,3.43.67A60.12,60.12,0,0,1,997.23,518.76Zm-673-3.87c0-.66-2.26-1.58-5-2.06s-6.68-1.19-8.71-1.59c-6.49-1.29-3.94,1.66,2.68,3.09C321.67,516.18,324.19,516.31,324.19,514.89Zm24.12-1.49c0-.74-1.66-1.3-3.68-1.25-3.27.09-3.38.23-1,1.25C347.28,515,348.31,515,348.31,513.4Zm115.94-5.76-8-4.29,5.69-.41c9.14-.67,6.56-2.9-3-2.62-4.79.14-8.71.73-8.71,1.31s-1.14,1.05-2.53,1.05c-2.89,0-4.61-5.73-2.39-7.95.76-.77,1.12-1.62.81-1.9-1.49-1.29-28.18-2.15-27.39-.88,1.47,2.38,8.73,5.52,10.39,4.49,4.58-2.83,15.48,1.68,12.14,5-1.09,1.09-2.29.69-4.46-1.49s-3.25-2.53-4-1.33-1.28,1.22-1.93.16-1.7-1.08-3.43-.15a15.25,15.25,0,0,1-6,1.35c-2.85,0-3.38-.49-2.73-2.53s-.39-3.22-4-5.36c-5.17-3.05-7.33-3.54-7.33-1.64,0,.66,1.57,1.59,3.5,2.07,3,.76,3.4,1.43,2.76,4.63l-.75,3.74,18.35,2.32c21.56,2.73,29.19,4.28,33.77,6.85a14.18,14.18,0,0,0,5.36,1.87c1.11,0-1.61-1.95-6-4.31Zm387.21,1.92c.27-.47-.8-3.57-2.39-6.88l-2.88-6-17.4-.26c-66.17-1-102.76-.78-111.67.65-7.87,1.26-10.54,1.22-13.4-.18-2-1-6.59-1.62-10.28-1.47-18.54.76-33.73.75-35.68,0-1.6-.65-2.89.6-5,4.82-1.55,3.14-2.53,6-2.16,6.36,1,1,83.18,1.33,84.53.34.65-.47,1.18-2.36,1.18-4.2,0-3.09.54-3.38,6.92-3.75,6.1-.36,7-.06,7.84,2.48.51,1.58.26,3.54-.55,4.35a4.94,4.94,0,0,0-1.48,2.45c0,.54,20.33,1,45.17,1.12s45.41.38,45.7.67c.88.88,11,.49,11.53-.44Zm2-6.55a86.94,86.94,0,0,0-3.92-10,10.62,10.62,0,0,1-1.32-4.19,5.57,5.57,0,0,0-2-3.54c-1.66-1.38-2-1.24-2,.78,0,3.48-2.27.78-3.48-4.13-.91-3.71-.8-3.87,1.36-2.09s2.27,1.57,1.38-3.21c-1.21-6.4,1.19-5.5,3.43,1.3.85,2.57,2.16,4.67,2.92,4.67s1-1,.42-2.34a39,39,0,0,1-1.6-5c-.55-2.3-.25-2.21,2.13.67,2.66,3.23,6.85,15,6.85,19.23A3.71,3.71,0,0,0,859,498a4.16,4.16,0,0,1,1.34,3.22c0,3.61,5,7.71,7,5.72,1.21-1.2,1.14-1.57-.3-1.57s-1.48-.4-.39-1.49c1.62-1.62,4.89-.37,3.77,1.43-.72,1.18,7.34,2.81,9,1.83,2.16-1.27.82-6.75-2.74-11.18-2.06-2.57-5.49-8.89-7.62-14.05-4.76-11.55-13.6-29.94-15.48-32.21-.77-.92-1.76-4.91-2.2-8.86s-1.56-8.69-2.47-10.53-2.48-5.16-3.47-7.37a46.76,46.76,0,0,0-4.12-7.13c-1.27-1.71-3.27-6.54-4.44-10.72s-2.66-8.82-3.31-10.3-3.45-8.6-6.24-15.83c-4.09-10.62-5.52-13-7.4-12.55-2.7.71-5.18-4.91-5.18-11.73a14.24,14.24,0,0,0-2-7c-1.08-1.54-4.45-9.06-7.49-16.72s-7.81-19.65-10.6-26.66-7.32-18.16-10.09-24.79-6.13-14.78-7.46-18.1-4-9-5.86-12.73-3.45-7.47-3.45-8.42-1.44-4.57-3.19-8c-3.5-6.94-6-16.62-3.79-14.37.74.74,3,5.57,5,10.73s4.45,10.28,5.4,11.39a17.39,17.39,0,0,1,2.7,6,124.63,124.63,0,0,0,5.93,14.74c2.73,5.9,6.08,13.74,7.46,17.43s3.27,8.21,4.22,10.05a16.53,16.53,0,0,1,1.72,4.5c0,.63,1.76,4.85,3.9,9.38s4.8,10.95,5.92,14.27c2,6.09,4.74,12.58,10.28,24.79a54.71,54.71,0,0,0,7.48,11.65,31.83,31.83,0,0,1,6,10.72c.87,3.18,2.5,8.35,3.62,11.5s1.73,6,1.36,6.4.81,4.74,2.63,9.69c10.68,29.14,9.23,26,16,34.92,3.34,4.38,4.42,7.16,4.44,11.39,0,5.26,4.2,17,6,17,.76,0,5.08-2.68,21.4-13.27,7-4.55,22.66-16.6,23.23-17.89a2.75,2.75,0,0,1,2.36-1c1,0,4.53-2.56,7.75-5.7a204.45,204.45,0,0,1,21.67-18.63,97.69,97.69,0,0,0,9.91-8.41c1.61-1.94,1.32-2.13-2.74-1.8-3.83.3-4.61-.11-5-2.66-.6-4.18,4.58-6.19,8.89-3.46,3.48,2.21,6.18.88,8.46-4.19a60.35,60.35,0,0,1,4.57-7.42c1.84-2.58,4.09-5.82,5-7.2a36.83,36.83,0,0,1,3.07-4c2.29-2.44,8.35-15.79,9.91-21.84,1.75-6.77.7-21.48-2.18-30.61-3.78-12-14.52-23.46-33.65-36-7.38-4.83-14.53-10.17-15.9-11.86-3.14-3.88-11.68-9.69-18.27-12.43-6.28-2.61-17.34-13.25-26.15-25.16-5.32-7.18-7.07-10.9-8.52-18.09-3-14.69-1.9-40.95,2.25-56,2.71-9.81,4.53-32.41,3.26-40.4-2-12.82-5.89-17.46-20.73-25-13.25-6.75-39.9-12.32-44.31-9.25-.78.54-5.59,6.11-10.68,12.37s-15,17.73-22.1,25.47-14.23,15.88-15.92,18.09-9.25,10.66-16.82,18.77c-19.87,21.29-25.06,27.25-31,35.52-2.91,4.05-7.2,9.48-9.54,12.06-3.83,4.21-14.77,17-29,33.91-2.79,3.33-6.43,7.46-8.09,9.19-11.31,11.81-26.2,28.15-37.08,40.7-7,8.06-17,19.24-22.12,24.83s-13.3,14.9-18.09,20.7-10.64,12.7-13,15.33-9.6,10.9-16.09,18.38-16.92,19.45-23.18,26.62S531.05,398,530.79,399.15c-.41,1.78,1.22,1.93,12.4,1.11l12.87-.95,6.48-6.95c3.56-3.83,8.64-9.37,11.28-12.32s5.16-5,5.59-4.57c.73.73-6.94,11.6-11.29,16a28,28,0,0,0-3.68,5c-1.51,2.69-1.34,3.06,1.72,3.83a20.6,20.6,0,0,0,7.56,0c2.44-.49,4.95-.18,6.06.74,2,1.66,4-.28,22.49-22.37,9.19-11,30.05-34.42,39-43.81,6.46-6.81,7-7.76,4.13-7.76s-5-3.35-4.06-5.86c1.07-2.81,8.06-2.89,9.61-.11.92,1.63,3.48-.62,12.19-10.73,6.07-7,11.61-12.79,12.31-12.79a1.54,1.54,0,0,0,1.29-1.69c0-1.79,13-16.29,36.52-40.68,7.92-8.22,14.41-15.55,14.41-16.29s-1.26-1.67-2.79-2.07c-2-.52-2.66-1.6-2.35-3.84.57-4,6-5,8.49-1.55,1.68,2.29,2.23,2,8-4.24,5.54-6,6.14-7.22,5.5-11.39-.4-2.58-1.8-5.47-3.1-6.43a5.36,5.36,0,0,1-1.95-5c.95-7.28-5-2.35-25.12,20.8C709.5,230.75,704,237.1,702,239.31s-6.8,7.71-10.75,12.21c-26.89,30.64-72.62,80.94-73.59,80.94-.64,0-2.1,2-3.24,4.35s-5.74,8.28-10.23,13.07-11,12.18-14.41,16.42-7,7.7-8,7.7c-2.69,0,1.58-6.43,10.8-16.29,4.37-4.68,8.74-10,9.7-11.85s4.39-5.83,7.59-8.87c5.34-5.05,9.26-9.41,22.59-25.13,2.58-3.05,5-5.84,5.36-6.21s2.86-3.38,5.53-6.7,6.3-7.57,8-9.46,6.19-6.94,9.87-11.23l12.06-14c2.95-3.4,12.75-13.67,21.78-22.82s16.42-17.14,16.42-17.76.91-1.13,2-1.13,2-.46,2-1c0-1.07,3.45-5.12,14.87-17.45,3.62-3.9,6.58-7.73,6.58-8.51s-1.81-3.1-4-5.16c-4.54-4.24-4.91-6.47-2-12.09,3-5.81,6.46-7.21,11.44-4.64,3.91,2,7,6.88,5.73,9-.32.55,0,1,.82,1s3-2.57,5-5.7c3.48-5.58,22.89-27.88,30-34.51a157.8,157.8,0,0,0,10.64-12.07c3.87-4.79,12.8-14.61,19.84-21.82,12.66-13,12.87-13.1,18.27-12.48,3,.35,7.38.67,9.7.71,3.8.08,4.44.71,6.33,6.24l2.09,6.15-6.4,6.92C818.66,145,814.77,149.39,814,151.85c-.41,1.29-1.27,2.35-1.89,2.35s-3.36,3-6.09,6.74a122.37,122.37,0,0,1-8.49,10.39c-3.73,3.84-27.25,29.43-35.3,38.41-4.59,5.12-4.78,5.19-6.25,2.44-1.31-2.45-.84-3.53,3.51-8.09,2.76-2.89,10.14-11.14,16.41-18.33,14.9-17.09,13.45-15.47,28.56-31.86,12.31-13.36,13-14.36,10.39-15.74-1.52-.81-2.76-2.38-2.76-3.49,0-2.73,5.37-4.53,8.82-3,2.4,1.09,4,0,11.39-7.66,9.65-10,10.37-11.22,7.76-12.87-4.12-2.62-8.67-1.15-15.27,4.93-3.67,3.37-7.53,6.84-8.57,7.7-3.37,2.8.6-3.26,5.75-8.78,5-5.35,7-9.74,5.11-10.94-1.6-1-4.1,1.13-11.69,9.9-3.51,4.05-10.36,11.65-15.23,16.88s-10.36,11.56-12.2,14.07a123.86,123.86,0,0,1-9.7,10.92c-3.5,3.5-10.38,11-15.29,16.76s-10.32,11.76-12,13.42c-2.89,2.83-3.11,7-.36,7,.65,0,1.19,1.55,1.19,3.44a15.4,15.4,0,0,0,1.45,6.14c.8,1.49,1.17,3,.84,3.32s-2.65-4.23-5.14-10.15-5.27-10.77-6.19-10.78-1.67.14-1.67.32c.08,1.78,4.28,13.72,6,17,1.21,2.34,2,5.27,1.76,6.51s-1.53-.67-2.94-4.45Q741,191.55,741,199.23c0,2.21.53,4.6,1.17,5.3,1.19,1.28,8.21,21.73,8.21,23.89,0,.64-1,.34-2.19-.66-1.9-1.58-2.48-1.38-4.36,1.46a64,64,0,0,1-5.31,6.68c-9.94,10.76-26,28.33-30.51,33.35-2.86,3.2-9.51,10.44-14.76,16.09s-11.94,13.28-14.86,17c-6.65,8.41-33.28,38.07-47,52.34-5.7,5.94-12.65,13.48-15.44,16.76s-10,11.39-15.92,18l-10.85,12.06,12.57.77c6.91.42,17.1,1.45,22.62,2.28,13,2,36.56,4.09,57.66,5.18,13.38.7,17.47,1.39,20.42,3.45,2,1.42,3.68,3.33,3.68,4.24s-4.07,7.48-9,14.6c-8.63,12.33-10.24,14.82-17.51,27-1.72,2.88-6.43,10.07-10.46,16s-7.13,11.7-6.91,12.85c.36,1.81,2.91,2,18.48,1.64,17.24-.45,18.18-.62,20.53-3.69,1.35-1.77,3.31-3.22,4.35-3.22a2.22,2.22,0,0,0,1.9-2.43c0-2.39,5.13-7,9.72-8.67a4,4,0,0,0,2.35-3.51,3.78,3.78,0,0,1,3-3.48,42.61,42.61,0,0,0,5.94-2.27c3.8-1.87,6.77-.65,8.69,3.57,1.28,2.8,1.13,3.83-.89,6.06-1.33,1.48-3.2,2.69-4.14,2.69-2.07,0-7.25,7-7.25,9.78a3.48,3.48,0,0,1-2.24,2.85c-1.36.53-1.75,1.34-1,2.1s7.77.72,18-.08c9.21-.72,20.66-1.18,25.46-1,8.66.3,30.82-4.65,41.3-9.23,2.45-1.07,5.32-1.61,6.37-1.21s1.92.3,1.92-.23c0-.81,9-4.62,17.59-7.41,5.24-1.71,4-15.85-2-22.26-1.77-1.9-4-6.77-4.9-10.83-2.1-9.18-6.09-20.64-9.34-26.8a144.46,144.46,0,0,1-5.85-14.08c-5.06-14.09-9.32-25.28-15.55-40.88A222.19,222.19,0,0,1,784,322.4a31,31,0,0,0-2.58-6.7c-.86-1.47-3.9-9.31-6.75-17.42-5.36-15.24-14.25-39.53-16.19-44.23q-6.15-14.87-7.25-20.1l-.85-4,2.24,4A134.33,134.33,0,0,1,758.57,248c3.26,8.84,9.12,23.83,17.43,44.57,5,12.53,8,20.59,11.45,30.49,3.24,9.4,10.91,28.13,12,29.37,3,3.35-.34-12.15-4.29-19.72-2.13-4.09-2.55-8.87-.67-7.71.68.42,1.66,2.7,2.18,5.07a34.12,34.12,0,0,0,2,6.35,91.62,91.62,0,0,1,6,15.16c.68,2.76,1.53,3.53,3.27,3,1.91-.61,2.48.31,3.11,5,.42,3.14.5,6,.19,6.28-1,1-6.1-4.28-8.2-8.35-5.17-10-2,4,4.08,18l4.08,9.43a30.27,30.27,0,0,1,2.12,6c0,1.85,9.63,26.49,10.9,27.88,2,2.19,1.3-7.09-.95-12.37a29.42,29.42,0,0,1-2.14-9.34c0-2.7-.57-4-1.44-3.48s-1,.23-.39-.78,0-2.39-1.64-3.51c-3.41-2.39-4.64-6.91-2.14-7.86,1.54-.59,1.58-1.22.23-3.38-1.85-3-1.62-3.41,2.44-4.65,2.15-.66,3-.21,3.56,1.84.46,1.78.06,2.72-1.18,2.72-1,0-1.86.15-1.84.33S820,382,821.38,386c2.38,6.9,5.37,10.47,5.46,6.51,0-1.08.62-.79,1.5.72,1.08,1.87,1,2.77-.26,3.56s-1,2.89,1.34,9.55c1.68,4.68,4,11.07,5.09,14.2s2.86,5.7,3.86,5.7,1.83,1.39,1.83,3.17a12.49,12.49,0,0,0,2.49,6.37c2.6,3.33,6.89,11.17,6.89,12.59,0,.45-.6.44-1.34,0s-1.34.38-1.34,1.86-.56,3-1.24,3.45-1.66,4.07-2.17,8.11l-.91,7.34-8.29,4.08a108.55,108.55,0,0,1-14.92,5.95,118.7,118.7,0,0,0-21.39,8c-4,2.09-4,2.11-.67,2.23,1.85.06,4.86.31,6.7.55s10.29.57,18.77.73,16.54.89,17.93,1.61c1.8.93,2.83.79,3.62-.49s2.08.43,4.34,5.56c1.78,4,3.66,8.7,4.17,10.36s1.46,3,2.09,3,0-3.47-1.45-7.71Zm7.31-9.71c-.84-4.06-1.31-7.61-1-7.9,1.09-1.16,3.35,7.35,3,11.17C862.39,500,862.06,499.41,860.79,493.3Zm-4.95-13a3.7,3.7,0,0,1-.89-2.28c0-.84.62-.76,1.58.2s1.28,1.9.9,2.28a1.16,1.16,0,0,1-1.59-.2Zm-10.28-14.7c0-2,3.53-5.71,5.57-5.81,1.82-.09-.48,4.84-3,6.4-2.17,1.36-2.6,1.26-2.6-.59ZM601.63,361.36c0-1.15.6-2.09,1.34-2.09a1.3,1.3,0,0,1,1.34,1.26,2.88,2.88,0,0,1-1.34,2.09C602.23,363.07,601.63,362.5,601.63,361.36Zm12.06-13.87c0-.67,1.3-2.36,2.88-3.77,2.85-2.53,2.86-2.53,1.33.39C616.19,347.37,613.69,349.38,613.69,347.49Zm9.54-10.5c4-6.1,11.35-15,13.58-16.46,4.67-3,2.17.84-6.54,10-4.89,5.12-8.06,8-7,6.48ZM790,317.55a49.72,49.72,0,0,0-4.13-7.88c-.88-1.1-2-4.42-2.54-7.37a46.28,46.28,0,0,0-3-9.66c-1.12-2.37-1.74-5.09-1.39-6q.65-1.71,1.64.95c.54,1.47,3.65,9.54,6.91,17.93,5.74,14.77,7.63,23.92,2.49,12.06Zm-149.47-.91c0-.59,2.11-3.12,4.69-5.62,5.69-5.52,6.18-3.74.65,2.34C641.82,317.78,640.5,318.59,640.5,316.64Zm16.11-17c0-.73,3-4.66,6.67-8.71s6.7-7.82,6.7-8.38.61-1,1.34-1c2.69,0,1.18,2.45-6.67,10.86C660.24,297.1,656.63,300.36,656.61,299.62ZM774.8,279.27a14.29,14.29,0,0,1-1.56-6c0-3,.14-2.94,2.09.66,1.13,2.07,1.83,4.78,1.57,6-.41,1.92-.73,1.82-2.1-.66Zm-98.3-2.43c2.78-5,5.38-7.65,7-7.11,1.17.39,1,1.13-.64,2.49-1.27,1.07-3.55,3.14-5.08,4.62-2.79,2.68-2.79,2.68-1.3,0Zm9.08-10.72c.43-1.11,1-2,1.3-2s.53.91.53,2-.59,2-1.3,2S685.16,267.22,685.58,266.12Zm84.48-.23a6.25,6.25,0,0,1-.81-3.68c.08-2.57.19-2.54,1.37.41C771.93,265.91,771.66,267.49,770.06,265.89Zm139.5-3.23c-2.86-1.67-3.07-7-.35-9.26,4.4-3.66,14,3.18,12,8.51-1,2.49-7.85,2.94-11.62.75Zm-144.2-7.33c-1.85-4.07-1.91-4.63-.43-4.63,1,0,4.24,5.73,4.24,7.44,0,1.93-2.49.1-3.81-2.81Zm-70.58.73c.46-.73,1.09-1.34,1.42-1.34s.59.61.59,1.34a1.38,1.38,0,0,1-1.42,1.34C694.59,257.4,694.32,256.8,694.78,256.06Zm66.39-11c-2.5-4.11-2.41-8,.13-5.48,1.36,1.36,4,9.74,3.06,9.74-.33,0-1.76-1.92-3.19-4.26Zm-57.14.44c2.84-3.2,3.48-3.49,3.48-1.59,0,.71-1.35,2-3,2.88C701.5,248.4,701.49,248.4,704,245.54Zm4.82-4.77a7.63,7.63,0,0,1,2-2.13c1.16-1,2-1.09,2-.31s-.9,1.71-2,2.13S708.85,241,708.85,240.77Zm5.58-5.63c.64-2.07,13.19-15.81,13.17-14.41,0,.64-3.08,4.47-6.82,8.53S714.18,236,714.43,235.14Zm41.33-5.36c-2.51-6.85-2.6-7.22-1.9-7.22,1.1,0,4.82,9.59,4,10.38-.39.39-1.35-1-2.13-3.16Zm-5.86-14.65c-1.3-3.37-.91-4.24.67-1.52.78,1.34,1.14,2.73.79,3.07s-1-.35-1.46-1.55Zm-18.26.22A8.32,8.32,0,0,1,734,213c2.13-1.67,2.18-1.62.51.51s-2.85,2.94-2.85,1.84ZM770.48,173c3.23-4.53,5.2-6,6.38-4.85.94.94-6.25,8.83-8,8.83-.65,0,.1-1.79,1.66-4Zm12.09-13.44c.79-1.47,2-2.68,2.77-2.68s.83,1-.09,2.68c-.79,1.48-2,2.68-2.78,2.68S781.65,161.29,782.57,159.56Zm5.36-5.28a2.86,2.86,0,0,1,1.33-2.08c.75-.47,1,.07.52,1.26C788.89,155.78,787.93,156.21,787.93,154.28Zm8-9.3c0-.65,1-2,2.23-3,2-1.67,2.08-1.56.63,1.17C797.16,146.26,796,147,796,145Zm9.38-10.88a1.39,1.39,0,0,1,1.42-1.35c.78,0,1.05.61.59,1.35s-1.09,1.34-1.41,1.34S805.35,134.83,805.35,134.1ZM819.17,85c-1.91-5,5.46-9.41,8.86-5.31a5.64,5.64,0,0,1,.8,4.76C827.73,87.9,820.45,88.31,819.17,85ZM317.49,508.86c0-.28-1.21-.82-2.69-1.21s-2.68-.15-2.68.51,1.21,1.22,2.68,1.22S317.49,509.15,317.49,508.86Zm-8.78-3.68c.75-.68-.2-1.16-2.3-1.16-6.42,0-7.41-7.78-1.22-9.6,1-.29-7.71-.51-19.32-.49l-21.1,0-1.21,3.64c-2.42,7.24-.4,8.23,17.94,8.8,9.1.28,16.77.74,17,1,.8.79,8.77-1,10.17-2.23Zm217.79,1.53c10,0,9.63-2.1-.6-3.14-3.68-.37-8.51-1.07-10.72-1.55-5-1.1-11.39,1.22-11.39,4.16,0,1.91,1,2.11,7,1.39C514.69,507.1,521.75,506.72,526.5,506.71Zm-156.74-1.35A1.31,1.31,0,0,0,368.5,504a2.85,2.85,0,0,0-2.09,1.34c-.46.74.11,1.34,1.26,1.34S369.76,506.1,369.76,505.36Zm105.56-.73c2.05-1.44,3.68-1.69,5.32-.83a35.64,35.64,0,0,0,8.07,2.19c5.16.85,5.69.68,5.69-1.81,0-3.83-4.54-5.9-10.68-4.86-3.12.53-5.47.31-6-.57-1.84-3-5.82-1.45-7.3,2.79a45.56,45.56,0,0,0-1.47,4.69c0,1.2,3.71.26,6.38-1.6Zm-115.2-8.32c-.39-2-2.08-2.35-12.05-2.35-11.26,0-13.87,1.79-3.11,2.15a53.12,53.12,0,0,1,9.38,1.21c6.09,1.54,6.27,1.51,5.78-1Zm33.76,1c0-.74-1.51-1.34-3.35-1.34s-3.35.6-3.35,1.34,1.51,1.34,3.35,1.34S393.88,498.05,393.88,497.32Zm7,.43c-1.33-.53-1.37-1.13-.17-2.57,2-2.4,0-5-5.5-7.26-3.3-1.37-4.74-1.27-8.61.56-7.11,3.38-6.75,4.4,1.9,5.37,6.19.7,7.79,1.34,7.2,2.86s.26,1.92,3.09,1.84C400.87,498.49,401.82,498.13,400.86,497.75Zm50.29.1a2.67,2.67,0,0,0-2.57-.11c-1.07.43-.75.75.81.81s2.21-.26,1.76-.7Zm-66-1.87c-.46-.74-3.24-1.34-6.19-1.34-3.23,0-5,.53-4.53,1.34s3.24,1.34,6.19,1.34C383.87,497.32,385.67,496.78,385.17,496Zm337.08-17.09c0-1.94-.8-3-2.25-3-2.75,0-8.47,5.14-8.47,7.61,0,1-1.2,1.77-2.68,1.77-3.79,0-3.53,5.11.34,6.67,2.56,1,3.76.38,8-4.4,2.76-3.09,5-7,5-8.63Zm116.61-31.63c0-2.27-5.08-7-6.26-5.79-1.42,1.43,2,7.6,4.22,7.6A2,2,0,0,0,838.86,447.26Zm-321.67-49.8a2,2,0,0,0-2-2c-2.09,0-2.66,1.59-1.12,3.13S517.19,399.56,517.19,397.46Zm8.28-4c1.45-1.84,3.5-3.35,4.55-3.35a1.93,1.93,0,0,0,1.91-1.94,3.92,3.92,0,0,1,1.92-3c1.85-1,2.1-1.56,2.1-4.42,0-.74.95-1.34,2.11-1.34,1.41,0,2-1,1.67-3-.54-3.82-7.24-4.47-6.94-.67.1,1.29-.54,2.35-1.42,2.35-1.71,0-6.4,5.8-7.85,9.69a2.22,2.22,0,0,1-2.79,1.59c-3.07-1.18-4,2-1.45,4.89,3,3.28,3,3.27,6.19-.76ZM545,370c.38-1.48,1.49-2.68,2.46-2.68s2.16-1.23,2.63-2.74c.61-1.9,1.62-2.5,3.33-2,3,.95,4.86-1.4,2-2.49a3.41,3.41,0,0,1-2-3c0-1.53-.81-2-2.61-1.53s-2.79-.08-3.12-1.51c-.29-1.23-1.24.33-2.14,3.51s-2.81,6.46-4.25,7.36c-4.23,2.64-3.13,7.13,1.86,7.59.62.06,1.44-1.1,1.83-2.57Zm13.79-16.6c0-2.07.94-3.44,2.68-3.9a3,3,0,0,0,0-5.92c-1.47-.39-2.68-1.35-2.68-2.15s-1.51.6-3.35,3.1c-3.69,5-4.19,8-1.74,10.46,2.61,2.61,5.09,1.84,5.09-1.59Zm10.33-12.89c-.73-2.81,2.19-3.85,3.74-1.34,1.86,3,3.66,1.21,2.85-2.84-.75-3.75-.55-4.1,2-3.43s2.74.3,2-3.2-.43-3.93,2.53-3.93c2,0,3.32-.77,3.32-2,0-1.82,1.59-2.61,4.35-2.17.55.09,1-.6,1.06-1.52s1.84-3.76,4-6.31,4-5.65,4-6.88a3.52,3.52,0,0,1,2.73-3c2.18-.57,2.56-1.41,1.87-4.18s-.36-3.46,1.28-3.46c2.74,0,2.76-1.89.06-4.59s-7.94-.41-6.72,2.78c.8,2.08-2,5.83-4.39,5.83-1.39,0-5.53,7.36-5.58,9.93,0,.8-2,2.37-4.36,3.48s-4.52,3.21-4.76,4.69-2.54,4.79-5.12,7.37c-5.9,5.91-11.49,14.54-10.47,16.17.42.69,2,1.25,3.53,1.25,2.09,0,2.59-.64,2.05-2.68Zm35.24-33.76c0-1.76-3-.66-3.71,1.34-.33,1,.28,1.28,1.59.78C603.35,308.41,604.31,307.46,604.31,306.74Zm9.19-17.51c-.29-3.19.11-4.24,1.5-3.93,3.36.75,7.92-2.71,8.79-6.68.58-2.61,1.58-3.74,3.08-3.49s2.39-.7,2.66-2.65,1.35-3,3.06-3a3.85,3.85,0,0,0,3.44-2.13c.6-1.56,1.09-1.69,1.82-.49.65,1,1.6,0,2.68-3,.92-2.55,3-5.19,4.51-5.87s4-3.83,5.42-7c1.61-3.55,3.27-5.49,4.35-5.07s2.08-.66,2.57-2.64c.46-1.81,1.39-3.3,2.07-3.3s1.62-1,2.1-2.24A17,17,0,0,1,664.9,233c1.38-1.38,2.16-3.05,1.74-3.73s.47-1.87,2-2.67,2.71-2.27,2.71-3.25,1.81-2.16,4-2.6c4.88-1,5-2.12.55-5.36-3-2.19-3.66-2.25-5.66-.51-1.24,1.08-3,1.7-3.86,1.38s-1.94,1.26-2.45,4c-.61,3.27-3.65,7.37-10.77,14.5-5.45,5.47-9.93,11-9.94,12.34s-.79,2.26-1.71,2.09c-3.4-.66-7.7,1.76-7.7,4.33,0,3.85-5.67,11.92-8.38,11.94-1.45,0-2.35,1-2.35,2.7a9.26,9.26,0,0,1-2.68,5.36c-1.47,1.47-2.68,3.24-2.68,3.93s-1.05,1.6-2.34,2c-3.61,1.2-7,8.93-5.18,11.81,2.3,3.64,3.74,2.75,3.31-2Zm68.07-78.77c-.73-3.65-.56-3.92,1.7-2.71,3.76,2,6.37-1.53,3.35-4.55s-1.46-4.09,2.45-1.52c3.49,2.28,5,1.68,5-2a3.52,3.52,0,0,1,2.68-3,3.57,3.57,0,0,0,2.68-3.51c0-1.91.85-2.8,2.68-2.8,3.26,0,3.71-4.68.56-5.89-3.84-1.47-5.92-.85-5.92,1.77,0,1.66-1.08,2.75-3,3-2.29.33-2.95,1.24-2.76,3.78.14,1.84-.09,2.51-.51,1.49-.52-1.27-3,.6-8,6-7.55,8.24-8.21,9.71-5.59,12.33,3.15,3.15,5.49,1.91,4.62-2.44Zm203.78-10.92c1.71-1.61,3.1-3.44,3.1-4.08,0-1.61,17.94-22.3,32.74-37.77,2.9-3,12.35-13.34,21-22.92s21.8-23.71,29.19-31.39,13.13-14.46,12.76-15.06-2-1-3.63-.94a41.73,41.73,0,0,1-8.91-1.28c-3.27-.78-6.36-1.18-6.86-.87s-8.06-.89-16.82-2.65S928.1,79,923.31,78.49c-8.39-.86-25.6-4.21-52.28-10.16-7-1.56-15.45-3.31-18.77-3.88s-9-1.68-12.73-2.45-11.43-2.16-17.21-3.07c-8.88-1.4-10.7-1.36-11.71.23-2,3.23-1.4,3.9,3.71,3.9,5.48,0,17.28,2,28.56,5l11.94,3.07c6.16,1.56,19,8.41,23.38,12.43,1.94,1.8,5.12,6.75,7.07,11,3.35,7.32,3.5,8.56,2.8,22.64a182,182,0,0,1-3.6,27c-4.33,18.35-6,31-5.71,43.54.37,15.89,1,17.07,6.59,11.85ZM709.44,185.16c-.85-.84-3.24,2.57-3.2,4.56,0,.73.9.18,2-1.24s1.63-2.92,1.23-3.32Zm.75-4.93c0-3.12.38-3.37,3.89-2.6,3,.66,4.33.23,5.89-2,1.09-1.57,1.72-3.87,1.4-5.11s1.57-4.5,4.84-7.9c3-3.11,5.43-6.9,5.43-8.43,0-2.43.36-2.58,2.88-1.23,2.81,1.5,2.86,1.37,2-4.67s-.79-6.19,2.47-5.37c2.73.69,3.33.35,3.33-1.91,0-1.51-.61-3.12-1.36-3.59a1.57,1.57,0,0,1-.55-2.15c.51-.83,1.5-.74,2.68.24,3.12,2.59,6.13.5,5.11-3.55-.83-3.31-.7-3.43,2.12-1.92,4.13,2.21,6,.09,3.91-4.46s-3-4.45-6.43,0c-1.73,2.2-3.53,3.2-4.86,2.69s-1.75-.24-1.3.49c1.12,1.82-1.72,6.72-3.9,6.72-1,0-2.58,1.89-3.54,4.2a38.37,38.37,0,0,1-6.1,9c-3.43,3.74-4.09,5.28-3.07,7.18s.8,2.36-1.67,2.09q-3-.33-3.73,2.35c-.42,1.48-1.67,2.68-2.78,2.68s-2.18,1.24-2.4,2.74-2.49,3.88-5.12,5.29c-5.9,3.18-7.81,6.45-5.88,10.07,2.16,4,6.7,3.51,6.7-.78Zm6-7.27c-.45-.73.15-1.34,1.34-1.34s1.8.61,1.34,1.34-1,1.34-1.34,1.34S716.68,173.7,716.22,173Zm47.92-52.84c2.76-2.49,5-4.84,5-5.22s1.65-2.45,3.68-4.59,6.43-6.86,9.79-10.49,6.46-6.6,6.89-6.6C791.32,93.22,796,88,796,86c0-4.45-3.38-8.84-6.73-8.84-2.56,0-3.66,1-4.9,4.6-.88,2.54-1.3,5.09-.94,5.69s-.24.73-1.35.3-3.61,1-6.28,4.09c-2.35,2.67-4.93,4.64-5.73,4.37s-2.75,2.19-4.32,5.45-3.4,6.33-4.05,6.8c-2.19,1.59-7.23,9.45-7.23,11.27s2.57,5,4,5c.4,0,3-2.07,5.76-4.56Zm-5-2.11c-.45-.74.12-1.34,1.26-1.34s2.09.6,2.09,1.34a1.3,1.3,0,0,1-1.26,1.34A2.88,2.88,0,0,1,759.11,118Zm5.31-6.79a1.93,1.93,0,0,1-.17-2.14c1-1,3.58.73,3.58,2.31s-2.32,1.6-3.41-.17Zm79.8-5.67c0-3.11-3.1-5-8.31-5s-6.61,2-3.48,5.09c2.22,2.22,11.79,2.11,11.79-.13ZM810.66,69.34c.08-3.52-5-1.72-9.66,3.41-3.82,4.22-4.3,5.91-2.81,9.81.73,1.89,1.91,1.13,6.65-4.24,3.18-3.6,5.8-7.64,5.82-9Zm-8.46-3.7c4.63-6.37,5.32-8.61,3.07-10-3-1.87-12.92,11.07-11.44,14.94C795,73.67,797.38,72.28,802.2,65.64Z"/></g></svg>